<?xml version="1.0" encoding="UTF-8" standalone="no"?>
<svg
   xmlns:dc="http://purl.org/dc/elements/1.1/"
   xmlns:cc="http://creativecommons.org/ns#"
   xmlns:rdf="http://www.w3.org/1999/02/22-rdf-syntax-ns#"
   xmlns:svg="http://www.w3.org/2000/svg"
   xmlns="http://www.w3.org/2000/svg"
   xmlns:sodipodi="http://sodipodi.sourceforge.net/DTD/sodipodi-0.dtd"
   xmlns:inkscape="http://www.inkscape.org/namespaces/inkscape"
   id="svg2"
   xml:space="preserve"
   viewBox="0 0 1122.5197 793.70076"
   version="1.1"
   sodipodi:docname="body.svg"
   inkscape:version="0.92.5 (0.92.5+68)"
   width="297mm"
   height="210mm"><sodipodi:namedview
   pagecolor="#ffffff"
   bordercolor="#666666"
   borderopacity="1"
   objecttolerance="10"
   gridtolerance="10"
   guidetolerance="10"
   inkscape:pageopacity="0"
   inkscape:pageshadow="2"
   inkscape:window-width="1855"
   inkscape:window-height="1056"
   id="namedview67"
   showgrid="false"
   inkscape:zoom="1.4168305"
   inkscape:cx="233.6796"
   inkscape:cy="46.72773"
   inkscape:window-x="65"
   inkscape:window-y="24"
   inkscape:window-maximized="1"
   inkscape:current-layer="svg2"
   units="mm"
   showborder="false" />
  <defs
   id="defs6">
    <clipPath
   id="clipPath254"
   clipPathUnits="userSpaceOnUse">
      <path
   id="path256"
   d="M 72.5,525.97 H 264.13 V 356 H 72.5 Z"
   inkscape:connector-curvature="0"
   style="clip-rule:evenodd" />
    </clipPath>
    <clipPath
   id="clipPath260"
   clipPathUnits="userSpaceOnUse">
      <path
   id="path262"
   d="M 0,792 H 612 V 0 H 0 Z"
   inkscape:connector-curvature="0" />
    </clipPath>
    <clipPath
   id="clipPath266"
   clipPathUnits="userSpaceOnUse">
      <path
   id="path268"
   d="m 0.06,792 h 612 V 0 h -612 z"
   inkscape:connector-curvature="0" />
    </clipPath>
    <clipPath
   id="clipPath286"
   clipPathUnits="userSpaceOnUse">
      <path
   id="path288"
   d="m 142.18,427.49 c 0,0 -3.384,3.384 -3.384,7.415 0,3.532 0.215,5.043 2.09,6.122 2.774,1.596 8.427,6.336 11.812,6.552 3.384,0.216 13.538,-0.499 17.569,-5.325 4.032,-4.827 2.373,-7.78 1.942,-9.074 -0.432,-1.294 -4.53,-3.317 -5.973,-5.043 -1.443,-1.725 -6.282,-5.805 -10.518,-6.188 -6.405,-0.58 -13.538,5.541 -13.538,5.541"
   inkscape:connector-curvature="0" />
    </clipPath>
    <clipPath
   id="clipPath296"
   clipPathUnits="userSpaceOnUse">
      <path
   id="path298"
   d="M 72.5,525.97 H 264.13 V 356 H 72.5 Z"
   inkscape:connector-curvature="0"
   style="clip-rule:evenodd" />
    </clipPath>
    <clipPath
   id="clipPath302"
   clipPathUnits="userSpaceOnUse">
      <path
   id="path304"
   d="M 0,792 H 612 V 0 H 0 Z"
   inkscape:connector-curvature="0" />
    </clipPath>
    <clipPath
   id="clipPath308"
   clipPathUnits="userSpaceOnUse">
      <path
   id="path310"
   d="m 0.06,792 h 612 V 0 h -612 z"
   inkscape:connector-curvature="0" />
    </clipPath>
  
    
    
    
    
  
      
    
        
      
          
        
            
            
            
            
            
            
            
            
            
            
            
            
            
            
            
            
            
            
            
            
            
            
            
            
            
            
            
            
          
      
    <filter
   style="color-interpolation-filters:sRGB"
   id="filter4083"
   inkscape:collect="always"><feGaussianBlur
     id="feGaussianBlur4085"
     stdDeviation="1.5756356"
     inkscape:collect="always" /></filter><filter
   style="color-interpolation-filters:sRGB"
   id="filter3976"
   height="1.2156"
   width="1.0443"
   y="-0.1078"
   x="-0.022139"
   inkscape:collect="always"><feGaussianBlur
     id="feGaussianBlur3978"
     stdDeviation="1.2069934"
     inkscape:collect="always" /></filter><filter
   style="color-interpolation-filters:sRGB"
   id="filter3982"
   height="1.7454"
   width="1.0571001"
   y="-0.37268999"
   x="-0.028564001"
   inkscape:collect="always"><feGaussianBlur
     id="feGaussianBlur3984"
     stdDeviation="1.5211624"
     inkscape:collect="always" /></filter><filter
   style="color-interpolation-filters:sRGB"
   id="filter3993"
   inkscape:collect="always"><feGaussianBlur
     id="feGaussianBlur3995"
     stdDeviation="0.98728079"
     inkscape:collect="always" /></filter><filter
   style="color-interpolation-filters:sRGB"
   id="filter3832"
   height="1.2365"
   width="1.4868"
   y="-0.11826"
   x="-0.24342"
   inkscape:collect="always"><feGaussianBlur
     id="feGaussianBlur3834"
     stdDeviation="21.815255"
     inkscape:collect="always" /></filter></defs>
  
<metadata
   id="metadata64"><rdf:RDF><cc:Work><dc:format>image/svg+xml</dc:format><dc:type
         rdf:resource="http://purl.org/dc/dcmitype/StillImage" /><cc:license
         rdf:resource="http://creativecommons.org/publicdomain/zero/1.0/" /><dc:publisher><cc:Agent
           rdf:about="http://openclipart.org/"><dc:title>Openclipart</dc:title></cc:Agent></dc:publisher><dc:title></dc:title><dc:date>2010-04-06T07:38:23</dc:date><dc:description>This is clipart converted and broken apart that has been released into the public domain because the document says so, and its from NASA, a USA government agency. The publication is called &quot;The Brain in Space:&quot;\n\nhttp://www.nasa.gov/audience/foreducators/topnav/materials/listbytype/The.Brain.in.Space.html</dc:description><dc:source>http://openclipart.org/detail/38365/-by-rejon-38365</dc:source><dc:creator><cc:Agent><dc:title>rejon</dc:title></cc:Agent></dc:creator><dc:subject><rdf:Bag><rdf:li>astronomy</rdf:li><rdf:li>brain</rdf:li><rdf:li>clip art</rdf:li><rdf:li>clipart</rdf:li><rdf:li>converted</rdf:li><rdf:li>government</rdf:li><rdf:li>nasa</rdf:li><rdf:li>science</rdf:li><rdf:li>space</rdf:li><rdf:li>usa</rdf:li></rdf:Bag></dc:subject></cc:Work><cc:License
       rdf:about="http://creativecommons.org/publicdomain/zero/1.0/"><cc:permits
         rdf:resource="http://creativecommons.org/ns#Reproduction" /><cc:permits
         rdf:resource="http://creativecommons.org/ns#Distribution" /><cc:permits
         rdf:resource="http://creativecommons.org/ns#DerivativeWorks" /></cc:License></rdf:RDF></metadata><g
   transform="matrix(0.36188364,0,0,0.36188364,247.03009,626.26297)"
   id="g1833"><path
     id="path192"
     d="m 74.74,278.265 c 0,0 -0.36875,-10.73125 -0.5475,-22.81125 -0.18125,-12.21125 -0.165,-25.78625 0.55875,-31.2425 1.5,-11.3 0.04375,-22.90375 -0.585,-34.33125 -0.85875,-15.57 -0.4375,-68.51375 1.7375,-81.435 l 4.9075,2.505 c -4.5675,8.90875 1.9475,64.0525 2.71125,77.905 0.65,11.79 -1.78,24.4175 -3.3275,36.07875 -1.815,13.6775 -0.46625,38.49375 0.0225,53.1475 L 74.74,278.265"
     inkscape:connector-curvature="0"
     style="fill:#d3d2d2;stroke-width:1.25" /><path
     id="path194"
     d="m 159.39,299.59 8.3625,-24.58375 5.19875,1.7675 -8.3625,24.585 L 159.39,299.59"
     inkscape:connector-curvature="0"
     style="fill:#d3d2d2;stroke-width:1.25" /><path
     id="path196"
     d="m 185.94,306.99 9.715,-29.665 5.22375,1.69125 -9.6725,29.88875 -5.26625,-1.915"
     inkscape:connector-curvature="0"
     style="fill:#d3d2d2;stroke-width:1.25" /><path
     id="path198"
     d="m 188.815,26.9525 c -0.1475,0.79625 -2.90125,16.87625 -0.0675,20.70125 3.9275,5.30125 13.04125,3.28125 21.36125,20.66625 5.75625,12.02625 9.65625,31.7125 11.2325,45.2325 l -5.45375,0.63625 c 0,0 -0.8175,-6.99 -2.58,-15.9575 -2.61375,-13.295 -6.69,-32.79 -19.15625,-40.62875 C 183.245,50.745 181.0825,51.3125 182.18,35.78 c 0.37125,-5.2425 1.22625,-9.83125 1.22625,-9.83125 l 5.40875,1.00375"
     inkscape:connector-curvature="0"
     style="fill:#d3d2d2;stroke-width:1.25" /><path
     id="path200"
     d="m 176.6775,22.565 c 0,0 -0.1125,7.17125 -1.21125,14.085 -0.7425,4.67375 -2.91,16.3575 -10.3375,14.42375 -9.35375,-2.435 -6.13625,-22.1525 -4.86625,-28.23875 l 5.375,1.12125 c -0.46625,2.2375 -3.5225,20.65875 0.875,21.80375 3.23875,0.8425 4.6175,-19.675 4.675,-23.28 l 5.49,0.085"
     inkscape:connector-curvature="0"
     style="fill:#d3d2d2;stroke-width:1.25" /><path
     id="path202"
     d="m 130.515,19.365 c 0.3075,2.9025 4.2925,31.8775 13.4075,29.285 5.96,-1.695 2.595,-25.11375 2.2275,-27.2125 l 5.42,-0.9475 c 0,0 1.2425,7.155 1.33,14.64125 0.0675,5.79375 -0.36,16.77625 -7.475,18.8 C 130.65125,58.1325 125.9175,28.2925 125.03375,19.9425 L 130.515,19.365"
     inkscape:connector-curvature="0"
     style="fill:#d3d2d2;stroke-width:1.25" /><path
     id="path204"
     d="m 105.04,109.39 c -0.1325,2.76125 -0.40625,27.2575 8.6275,26.33875 5.24125,-1.72625 0.15375,-18.3975 -0.59875,-21.35 -2.46875,-9.68875 -7.475,-26.1525 -2.46625,-35.6075 8.21375,-15.50625 8.19625,-17.75125 6.7675,-26.605 -1.53625,-9.52125 -7.3825,-27.025 -7.3825,-27.025 l 5.24125,-1.73625 c 0,0 5.9775,18.06375 7.5625,27.88625 3.6975,22.91625 -11.2125,23.28375 -8.41875,43.62375 1.59625,11.62625 3,20.85375 7.89125,33.25125 6.18625,15.67875 22.8375,36.69125 22.8375,36.69125 l -3.93,9.8575 c 0,0 -15.1625,-30.5125 -26.37875,-33.595 C 99.965,143.17625 99.12875,118.0425 99.555,109.1275 l 5.485,0.2625"
     inkscape:connector-curvature="0"
     style="fill:#d3d2d2;stroke-width:1.25" /><path
     id="path206"
     d="m 222.64,172.615 c 0,0 2.4025,17.84625 2.4025,30.54375 0,12.69875 -1.71625,30.8875 -8.58,33.29 -6.86375,2.4025 -10.29625,-3.08875 -17.50375,-7.55 -7.20625,-4.46125 -5.49,2.4025 -3.43125,6.86375 2.05875,4.46125 23.33625,21.62125 -1.03,29.8575 -24.36625,8.23625 -54.91,-13.7275 -72.4125,-24.36625 -17.50375,-10.63875 -16.65625,0.2875 -16.65625,0.2875 0,0 3.47375,-1.345 9.97375,4.65125 6.5,5.995 29.81,25.77375 51.60625,30.76 21.795,4.98625 50.6325,8.01625 63.70625,-8.96375 19.5,-25.32875 -3.64125,-82.25625 -5.32375,-96.2075 -2.065,-4.6575 -2.75125,0.83375 -2.75125,0.83375 z"
     stroke-miterlimit="3.864"
     inkscape:connector-curvature="0"
     style="fill:#231f20;stroke:#231f20;stroke-width:0.68625003;stroke-miterlimit:3.86400008" /><path
     id="path208"
     d="m 188.815,26.9525 c -0.1475,0.79625 -2.90125,16.87625 -0.0675,20.70125 3.9275,5.30125 13.04125,3.28125 21.36125,20.66625 5.75625,12.02625 9.65625,31.7125 11.2325,45.2325 l -5.45375,0.63625 c 0,0 -0.8175,-6.99 -2.58,-15.9575 -2.61375,-13.295 -6.69,-32.79 -19.15625,-40.62875 C 183.245,50.745 181.0825,51.3125 182.18,35.78 c 0.37125,-5.2425 1.22625,-9.83125 1.22625,-9.83125 m -68.17,-2.55 c 0,0 5.9775,18.06375 7.5625,27.88625 3.6975,22.91625 -11.2125,23.28375 -8.41875,43.62375 1.59625,11.62625 3,20.85375 7.89125,33.25125 6.18625,15.67875 22.8375,36.69125 22.8375,36.69125 l -3.93,9.8575 c 0,0 -15.1625,-30.5125 -26.37875,-33.595 -14.8275,2.05625 -15.66375,-23.0775 -15.2375,-31.9925"
     stroke-miterlimit="3.864"
     inkscape:connector-curvature="0"
     style="fill:none;stroke:#231f20;stroke-width:1.37250006;stroke-miterlimit:3.86400008" /><path
     id="path210"
     d="m 179.2775,168.4775 -29.585,-54.28625 c 0,0 -0.77,-1.77 -1.54375,-4.4275 C 144.6425,97.73 145.035,83.24 157.58,75.93 c 19.1475,-11.15875 30.3725,3.01625 32.35375,17.58375 l -1.90625,0.24 -2.225,0.235 C 183.71125,72.26375 142.76375,71.655 153.42,108.2275 c 0.5575,1.91125 1.0725,3.2175 1.22125,3.58125 l 31.3175,57.6575 c 0,0 0.045,1.13875 2.50875,2.1475 2.46375,1.01 4.9875,-0.78125 9.805,1.6825 4.81875,2.46375 9.6375,23.9825 9.6375,23.9825 0,0 -2.93375,-7.055 -5.66,-7.51 -1.00875,-0.1675 -5.995,-2.85875 -5.995,-7.845 0,0 -1.79125,-1.1775 -2.96875,0.16875 -1.1775,1.345 -4.4825,-0.11 -4.81875,-2.12875 -0.33625,-2.0175 -4.54,-8.5175 -8.85375,-7.00375 -4.31375,1.51375 -6.3325,-1.00875 -5.66,-2.96875 0.67375,-1.96 2.6325,-1.68125 5.32375,-1.51375 z"
     stroke-miterlimit="3.864"
     inkscape:connector-curvature="0"
     style="fill:#d3d2d2;stroke:#231f20;stroke-width:1.37250006;stroke-miterlimit:3.86400008" /><path
     id="path212"
     d="m 158.7275,83.14 c 0,0 -3.36125,-3.145 -2.1175,-2.05125 C 177.07125,99.08 145.38625,123.75 144.7925,143.405 c -0.435,14.415 5.48125,79.1625 5.48125,79.1625 l -5.46875,0.49875 c 0,0 -5.93875,-65.29125 -5.50125,-79.82625 0.5975,-19.80375 25.62125,-40.405 16.64875,-54.57 -1.06625,-1.68375 0.96,-0.4025 -0.7525,-1.48 l 3.5275,-4.05"
     inkscape:connector-curvature="0"
     style="fill:#ffffff;stroke-width:1.25" /><path
     id="path214"
     d="m 186.2525,110.015 c 0,0 2.87,-1.1875 7.11125,-1.7125 10.96125,-1.3575 16.99625,5.64125 28.045,1.265 3.3275,-1.31875 35.59875,-11.0575 35.59875,-11.0575 l 1.585,5.25625 c 0,0 -31.875,9.605 -35.1625,10.90625 -14.5225,5.7525 -21.97625,-4.835 -35.10375,0.42625 L 186.2525,110.015"
     inkscape:connector-curvature="0"
     style="fill:#d3d2d2;stroke-width:1.25" /><path
     id="path216"
     d="M 239.815,78.0275 208.46125,87.5 188.09,92.99125 176.31125,92.195 l -7.7,-12.9425 -4.50875,0.3675 -4.265,1.71875 -4.63125,4.26375 3.835,2.61125 1.5925,7.08375 -4.95125,10.08625 -6.61875,12.43625 -5.69875,15.11875 -2.38875,15.67625 1.5925,21.965 26.65875,0.79625 0.79625,-25.06625 8.67625,-26.66 14.085,-10.9825 18.065,-8.675 28.25125,-9.39 c 0,0 9.3075,-6.2875 0.71375,-12.575 z"
     stroke-miterlimit="3.864"
     inkscape:connector-curvature="0"
     style="fill:#ffffff;stroke:#ffffff;stroke-width:0.68625003;stroke-miterlimit:3.86400008" /><path
     id="path218"
     d="m 144.3775,219.5275 -1.11375,1.64125 -1.01375,3.64625 1.82375,5.1875 4.0725,4.47875 3.9725,3.05875 7.82,3.95125 -2.5325,-4.66 -2.24875,-4.37625 -1.41875,-4.88375 -1.11375,-3.16125 -1.43875,-1.51875 -1.115,-0.81125 0.10125,-2.9575 -5.795,0.405"
     inkscape:connector-curvature="0"
     style="fill:#ffffff;stroke-width:1.25" /><path
     id="path220"
     d="m 158.04,82.4025 c 17.56875,17.865 -12.66875,41.82375 -13.2475,61.00625 -0.1275,4.2475 0.3325,11.05625 0.99375,21.09875 1.845,0.485 3.355,-1.06875 5.9325,-2.91375 2.57875,-1.845 4.4675,-0.3875 4.4675,-0.3875 l -10.11,9.6325 c 1.625,23.3625 4.1975,51.7325 4.1975,51.7325 0,0 2.30625,-0.0112 3.3625,4.42375 1.05625,4.43375 3.6975,12.4225 8.1325,15.24 0,0 -15.77,-6.2475 -18.7625,-14.18375 -1.9375,-5.13875 1.2325,-7.78 1.2325,-7.78 0,0 -5.3725,-62.4925 -4.935,-77.0275 0.5975,-19.80375 25.62125,-40.405 16.64875,-54.57 -0.43375,-0.685 -0.95125,-1.38375 -1.5275,-2.04375 l 3.615,-4.2275"
     inkscape:connector-curvature="0"
     style="fill:#d3d2d2;stroke-width:1.25" /><path
     id="path222"
     d="m 197.64,130.7025 c -1.08726,-5.18897 -5.2825,-10.925 -9.52,-8.4175 -4.2375,2.5075 -4.5975,7.0125 -3.13375,10.77375 1.4625,3.76125 4.76625,7.905 10.2975,4.655 1.52,-0.89375 3.44351,-1.82228 2.35625,-7.01125 z"
     stroke-miterlimit="3.864"
     inkscape:connector-curvature="0"
     style="fill:#ffffff;stroke:#231f20;stroke-width:0.68625003;stroke-miterlimit:3.86400008"
     sodipodi:nodetypes="zsccz" /><path
     id="path224"
     d="m 90.515,85.1025 c 0,0 -17.84625,80.65 37.06375,129.0375"
     stroke-miterlimit="3.864"
     inkscape:connector-curvature="0"
     style="fill:none;stroke:#231f20;stroke-width:0.68625003;stroke-miterlimit:3.86400008" /><path
     id="path226"
     d="m 127.5775,214.1525 0.31125,-2.41875 2.7525,5.08125 -5.41625,-2.01875 2.3525,-0.64375"
     inkscape:connector-curvature="0"
     style="fill:#231f20;fill-rule:evenodd;stroke-width:1.25" /><path
     id="path228"
     d="m 89.265,303.0775 c 0,0 -8.37,-67.9975 6.045,-81.725 14.41375,-13.7275 36.3775,1.715 36.3775,1.715"
     stroke-miterlimit="3.864"
     inkscape:connector-curvature="0"
     style="fill:none;stroke:#231f20;stroke-width:0.68625003;stroke-miterlimit:3.86400008" /><path
     id="path230"
     d="m 131.69,223.065 0.0563,-2.4375 3.26875,4.76625 -5.5975,-1.44125 2.2725,-0.8875"
     inkscape:connector-curvature="0"
     style="fill:#231f20;fill-rule:evenodd;stroke-width:1.25" /><path
     id="path232"
     d="m 159.165,193.5525 c 0,0 -9.96375,-31.57375 2.39125,-66.9225"
     stroke-miterlimit="3.864"
     inkscape:connector-curvature="0"
     style="fill:none;stroke:#231f20;stroke-width:0.68625003;stroke-miterlimit:3.86400008" /><path
     id="path234"
     d="m 161.5525,126.6275 -2.35875,0.61875 3.68,-4.45625 0.1575,5.7775 -1.47875,-1.94"
     inkscape:connector-curvature="0"
     style="fill:#231f20;fill-rule:evenodd;stroke-width:1.25" /><path
     id="path236"
     d="m 162.94,248.815 c 0,0 18.85375,7.89375 20.57,-0.34375 1.715,-8.23625 -7.89375,-15.4425 -7.89375,-15.4425"
     stroke-miterlimit="3.864"
     inkscape:connector-curvature="0"
     style="fill:none;stroke:#231f20;stroke-width:0.68625003;stroke-miterlimit:3.86400008" /><path
     id="path238"
     d="m 175.615,233.0275 -0.14125,2.435 -3.1,-4.87875 5.5425,1.63625 -2.30125,0.8075"
     inkscape:connector-curvature="0"
     style="fill:#231f20;fill-rule:evenodd;stroke-width:1.25" /><path
     id="path240"
     d="m 212.0025,200.0775 c 0,0 6.1775,15.7875 -1.02875,17.50375 -7.2075,1.715 -23.3375,-18.19 -23.3375,-18.19"
     stroke-miterlimit="3.864"
     inkscape:connector-curvature="0"
     style="fill:none;stroke:#231f20;stroke-width:0.68625003;stroke-miterlimit:3.86400008" /><path
     id="path242"
     d="m 187.6275,199.39 -0.725,2.32875 -1.82875,-5.4825 4.9825,2.92875 -2.42875,0.225"
     inkscape:connector-curvature="0"
     style="fill:#231f20;fill-rule:evenodd;stroke-width:1.25" /><path
     id="path244"
     d="m 190.715,128.69 7.55,22.65125"
     stroke-miterlimit="3.864"
     inkscape:connector-curvature="0"
     style="fill:none;stroke:#231f20;stroke-width:0.68625003;stroke-miterlimit:3.86400008" /><path
     id="path246"
     d="m 198.265,151.34 1.5125,-1.91375 -0.2575,5.77375 -3.6025,-4.52 2.3475,0.66"
     inkscape:connector-curvature="0"
     style="fill:#231f20;fill-rule:evenodd;stroke-width:1.25" /><path
     id="path248"
     d="m 266.2525,106.0025 c 0,0 -34.3425,4.495 -56.99375,25.08625"
     stroke-miterlimit="3.864"
     inkscape:connector-curvature="0"
     style="fill:none;stroke:#231f20;stroke-width:0.68625003;stroke-miterlimit:3.86400008" /><path
     id="path250"
     d="m 209.2525,131.09 2.36375,0.60375 -5.38,2.1125 2.66375,-5.12875 0.3525,2.4125"
     inkscape:connector-curvature="0"
     style="fill:#231f20;fill-rule:evenodd;stroke-width:1.25" /><path
     id="path252"
     d="m 198.265,97.465 c 0,0 22.65875,-9.8275 51.4875,-14.28875"
     stroke-miterlimit="3.864"
     inkscape:connector-curvature="0"
     style="fill:none;stroke:#231f20;stroke-width:0.68625003;stroke-miterlimit:3.86400008" /><path
     id="path254"
     d="m 249.765,83.1775 -1.65375,-1.7925 5.6625,1.1575 -5.0275,2.85125 1.01875,-2.21625"
     inkscape:connector-curvature="0"
     style="fill:#231f20;fill-rule:evenodd;stroke-width:1.25" /><path
     id="path256-3"
     d="M 129.64,56.6275 115.9125,11.67"
     stroke-miterlimit="3.864"
     inkscape:connector-curvature="0"
     style="fill:none;stroke:#231f20;stroke-width:0.68625003;stroke-miterlimit:3.86400008" /><path
     id="path258"
     d="m 115.9025,11.665 -1.54625,1.8875 0.35875,-5.76875 3.52375,4.58125 -2.33625,-0.7"
     inkscape:connector-curvature="0"
     style="fill:#231f20;fill-rule:evenodd;stroke-width:1.25" /><path
     id="path260"
     d="M 155.715,52.8525 155.02875,8.2375"
     stroke-miterlimit="3.864"
     inkscape:connector-curvature="0"
     style="fill:none;stroke:#231f20;stroke-width:0.68625003;stroke-miterlimit:3.86400008" /><path
     id="path262-6"
     d="M 155.0275,8.2275 153.02125,9.61625 154.95625,4.17 157.08,9.545 155.0275,8.2275"
     inkscape:connector-curvature="0"
     style="fill:#231f20;fill-rule:evenodd;stroke-width:1.25" /><path
     id="path264"
     d="m 177.34,54.215 3.0875,-46.33"
     stroke-miterlimit="3.864"
     inkscape:connector-curvature="0"
     style="fill:none;stroke:#231f20;stroke-width:0.68625003;stroke-miterlimit:3.86400008" /><path
     id="path266"
     d="m 180.4275,7.89 -2.11875,1.2075 2.4025,-5.25625 1.6475,5.54 L 180.4275,7.89"
     inkscape:connector-curvature="0"
     style="fill:#231f20;fill-rule:evenodd;stroke-width:1.25" /><path
     id="path268-7"
     d="m 105.04,109.39 c -0.1325,2.76125 -0.40625,27.2575 8.6275,26.33875 5.24125,-1.72625 0.15375,-18.3975 -0.59875,-21.35 -2.46875,-9.68875 -7.475,-26.1525 -2.46625,-35.6075 8.21375,-15.50625 8.19625,-17.75125 6.7675,-26.605 -1.53625,-9.52125 -7.3825,-27.025 -7.3825,-27.025 m 20.51875,-5.775 c 0.3075,2.9025 4.2925,31.8775 13.4075,29.285 5.96,-1.695 2.595,-25.11375 2.2275,-27.2125 m 5.42,-0.9475 c 0,0 1.2425,7.155 1.33,14.64125 0.0675,5.79375 -0.36,16.77625 -7.475,18.8 C 130.6425,58.13375 125.90875,28.29375 125.025,19.94375 m 51.65,2.625 c 0,0 -0.1125,7.17125 -1.21125,14.085 -0.7425,4.67375 -2.91,16.3575 -10.3375,14.42375 C 155.7725,48.6425 158.99,28.925 160.26,22.83875 m 5.375,1.12125 c -0.46625,2.2375 -3.5225,20.65875 0.875,21.80375 3.23875,0.8425 4.6175,-19.675 4.675,-23.28 m 28.015,85.8275 c 7.63875,0.90125 13.26375,4.80625 22.2025,1.26625 C 224.73,108.25875 257.00125,98.52 257.00125,98.52 m 1.59625,5.25625 c 0,0 -31.88625,9.605 -35.17375,10.90625 -13.6225,5.39625 -21.025,-3.58375 -32.72375,-0.3775"
     stroke-miterlimit="3.864"
     inkscape:connector-curvature="0"
     style="fill:none;stroke:#231f20;stroke-width:1.37250006;stroke-miterlimit:3.86400008" /><path
     id="path270-5"
     d="m 218.9775,164.7525 c -1.46375,6.1175 -7.0125,10.0875 -6.11875,13.07125 0.89375,2.98375 -0.4175,12.445 -0.4175,12.445 -0.6275,-4.02875 -2.775,-6.745 -5.49125,-11.60875 -2.71625,-4.86375 2.09,-10.565 5.2825,-15.01125 3.1925,-4.44625 6.2875,-14.5375 6.2875,-14.5375 0.0825,-2.9675 0.30625,-5.6325 0.7675,-7.89875 3.7775,-18.565 23.86125,-28.3075 40.9125,-29.645 l 0.43,5.475 c -0.57125,0.0438 -31.38125,2.75875 -35.9625,25.265 -4.7875,23.52625 12.9775,79.85 -3.49125,94.42 -15.81,13.98875 -42.34,-23.68375 -49.37875,-34.8475 l 4.64375,-2.93 c 0,0 1.845,2.92375 4.845,7.10375 4.6975,6.54625 26.21,35.4475 36.2525,26.56125 9.38625,-8.30625 3.45875,-41.9575 1.43875,-67.8625"
     inkscape:connector-curvature="0"
     style="fill:#d3d2d2;stroke-width:1.25" /><path
     id="path272-3"
     d="m 260.64,117.0525 c -0.57125,0.0438 -31.39125,2.75875 -35.9725,25.265 -4.7875,23.52625 12.9775,79.85 -3.49125,94.42 -15.81,13.98875 -42.34,-23.68375 -49.37875,-34.8475 l 4.64375,-2.93 c 0,0 1.845,2.92375 4.845,7.10375 4.6975,6.54625 26.21,35.4475 36.2525,26.56125 9.38625,-8.30625 3.45875,-41.9575 1.43875,-67.8625 -1.46375,6.1175 -7.0125,10.0875 -6.11875,13.07125 0.89375,2.98375 -0.4175,12.445 -0.4175,12.445 -0.6275,-4.02875 -2.775,-6.745 -5.49125,-11.60875 -2.71625,-4.86375 2.09,-10.565 5.2825,-15.01125 3.1925,-4.44625 6.2875,-14.5375 6.2875,-14.5375 0.0825,-2.9675 0.30625,-5.6325 0.7675,-7.89875 3.7775,-18.565 23.86125,-28.3075 40.9125,-29.645"
     stroke-miterlimit="3.864"
     inkscape:connector-curvature="0"
     style="fill:none;stroke:#231f20;stroke-width:1.37250006;stroke-miterlimit:3.86400008" /><path
     id="path274-5"
     d="m 166.4025,169.9025 c -0.9725,-12.49 -0.6825,-24.96 4.09125,-36.9975 7.78375,-19.62375 27.05625,-36.4425 69.42,-45.00375 l 1.0875,5.3825 c -41.38625,8.36375 -70.615,25.445 -69.565,69.02625 0.22625,9.4125 1.6025,18.5925 2.5475,26.8075 1.7925,15.56375 12.33875,29.17875 21.38,41.315 5.7575,7.72875 18.2725,22.44875 9.0975,32.25875 -12.21875,13.065 -36.35125,6.905 -56.3575,-2.70875 -7.38875,-3.55 -31.40125,-19.305 -37.2125,-20.16125 -12.7425,-1.8775 -8.56875,34.20875 -7.8675,38.8 L 97.595,279.45 c 0,0 -1.74125,-11.415 -1.205,-22.495 0.42125,-8.71125 2.69125,-24.425 15.3025,-22.56625 0.96375,0.14125 2.19875,0.58375 3.5125,1.085 2.29,-4.435 4.43375,-1.9375 7.07625,-1.2325 2.64125,0.70375 4.9625,1.585 9.925,-1.76125 4.9625,-3.34625 7.42875,0.17625 9.045,2.465 1.61625,2.29 12.5675,12.24625 12.5675,12.24625 0,0 -9.22125,-6.05 -19.14625,-7.9875 -9.92625,-1.9375 -8.02375,1.94375 -8.02375,1.94375 8.77375,5.0025 18.54,11.3425 23.8325,13.88625 20.7025,9.9475 40.8275,13.6825 49.97,3.90625 6.11,-6.5325 -5.955,-20.48125 -9.49,-25.22625 C 181.205,220.6175 170.465,206.55 168.52875,189.74625 168.0525,185.60875 167.53,181.44875 167.08,177.2825 c 0,0 -1.89125,-2.285 -4.08125,-3.74125 -2.19,-1.45625 -5.685,-6.07375 -4.6175,-10.69125 1.0675,-4.6175 5.1525,5.93125 8.02125,7.0525"
     inkscape:connector-curvature="0"
     style="fill:#d3d2d2;stroke-width:1.25" /><path
     id="path276-6"
     d="m 186.015,307.215 9.65125,-29.89 5.22375,1.69125 -9.6725,29.88875 m -31.82375,-9.31125 8.3625,-24.58375 5.19875,1.7675 -8.3625,24.585 M 97.60875,279.45875 c 0,0 -1.7525,-11.415 -1.21625,-22.495 0.42125,-8.71125 2.69125,-24.425 15.3025,-22.56625 0.96375,0.14125 2.19875,0.58375 3.5125,1.085 2.29,-4.435 4.43375,-1.9375 7.07625,-1.2325 2.64125,0.70375 4.9625,1.585 9.925,-1.76125 4.9625,-3.34625 7.42875,0.17625 9.045,2.465 1.61625,2.29 12.5675,12.24625 12.5675,12.24625 0,0 -9.22125,-6.05 -19.14625,-7.9875 -9.92625,-1.9375 -8.02375,1.94375 -8.02375,1.94375 8.77375,5.0025 18.54,11.3425 23.8325,13.88625 20.7025,9.9475 40.8275,13.6825 49.97,3.90625 6.11,-6.5325 -5.955,-20.48125 -9.49,-25.22625 -9.75625,-13.09625 -20.49625,-27.16375 -22.4325,-43.9675 -0.47625,-4.1375 -0.99875,-8.2975 -1.44875,-12.46375 0,0 -1.89125,-2.285 -4.08125,-3.74125 -2.19,-1.45625 -5.685,-6.07375 -4.6175,-10.69125 1.0675,-4.6175 5.1525,5.93125 8.02125,7.0525 -0.9725,-12.49 -0.6825,-24.96 4.09125,-36.9975 C 178.28,113.29 197.5525,96.47125 239.91625,87.91 m 1.12,5.3825 c -41.38625,8.36375 -70.6475,25.445 -69.5975,69.02625 0.22625,9.4125 1.6025,18.5925 2.5475,26.8075 1.7925,15.56375 12.33875,29.17875 21.38,41.315 5.7575,7.72875 18.2725,22.44875 9.0975,32.25875 -12.21875,13.065 -36.35125,6.905 -56.3575,-2.70875 -7.38875,-3.55 -31.40125,-19.305 -37.2125,-20.16125 -12.7425,-1.8775 -8.56875,34.20875 -7.8675,38.8 M 80.8125,110.9425 c -4.5675,8.90875 1.9475,64.0525 2.71125,77.905 0.65,11.79 -1.78,24.4175 -3.3275,36.07875 -1.815,13.6775 -0.46625,38.49375 0.0225,53.1475 m -5.4775,0.18375 c 0,0 -0.36875,-10.73125 -0.5475,-22.81125 -0.18125,-12.21125 -0.165,-25.78625 0.55875,-31.2425 1.5,-11.3 0.04375,-22.90375 -0.585,-34.33125 -0.85875,-15.57 -0.4375,-68.51375 1.7375,-81.435"
     stroke-miterlimit="3.864"
     inkscape:connector-curvature="0"
     style="fill:none;stroke:#231f20;stroke-width:1.37250006;stroke-miterlimit:3.86400008" /><path
     id="path470"
     d="m 239.8025,81.3275 c 0,0 -13.68375,4.79625 -28.11125,9.04375 -4.6175,1.36 -30.005,9.9225 -34.8275,5.3025 C 171.43125,90.47 168.3525,87.4725 166.185,80.5925 h 5.9825 c 0,0 -1.9175,-3.72875 -0.02,0.075 1.95625,3.92 4.61375,8.1075 7.905,10.5325 6.7675,2.2475 51.89125,-12.93625 57.9325,-15.05375 l 1.8175,5.18125"
     inkscape:connector-curvature="0"
     style="fill:#d3d2d2;stroke-width:1.25" /><path
     id="path472"
     d="m 171.515,79.2775 c 0.20875,0.45 0.4,0.915 0.63625,1.39 1.95625,3.92 4.61375,8.1075 7.905,10.5325 6.7675,2.2475 51.89125,-12.93625 57.9325,-15.05375 m 1.8175,5.18125 c 0,0 -13.68375,4.79625 -28.11125,9.04375 -4.6175,1.36 -29.45,9.26375 -34.8275,5.3025 C 172.08125,92.1475 167.955,85.37125 165.4325,79.25 m -7.35375,3.14625 c 17.56875,17.865 -12.7,41.82375 -13.27875,61.00625 -0.1275,4.2475 0.3325,11.05625 0.99375,21.09875 1.845,0.485 3.355,-1.06875 5.9325,-2.91375 2.57875,-1.845 4.4675,-0.3875 4.4675,-0.3875 l -10.11,9.6325 c 1.625,23.3625 4.1975,51.7325 4.1975,51.7325 0,0 2.30625,-0.0112 3.3625,4.42375 1.05625,4.43375 3.6975,12.4225 8.1325,15.24 0,0 -15.77,-6.2475 -18.7625,-14.18375 -1.9375,-5.13875 1.2325,-7.78 1.2325,-7.78 0,0 -5.3725,-62.4925 -4.935,-77.0275 0.5975,-19.80375 25.62125,-40.405 16.64875,-54.57 -0.43375,-0.685 -0.95125,-1.38375 -1.5275,-2.04375 m 30.86375,4.485 c -5.23875,-18.8225 -42.03625,-17.7625 -31.8725,17.1175 0.0975,0.3325 0.1925,0.6475 0.28625,0.94125"
     stroke-miterlimit="3.864"
     inkscape:connector-curvature="0"
     style="fill:none;stroke:#231f20;stroke-width:1.37250006;stroke-miterlimit:3.86400008" /></g><path
   inkscape:connector-curvature="0"
   id="path4755"
   sodipodi:nodetypes="csssssssssscccssssssssssssssssssssssssssssssssssssssssssssssssccsssssssssssssssssssssssssccssssssccsssssccssccsssccssssccssssccscccccsscccccsccssccssssssccsssccssccssccssccccssccsssssssccsssccssssssccssccssccsscccccccssccssccsssccsssccssssccsssscccssssccssssssssssccsssssssscccsssssccsssssscccccssssccssscccccssssccssccccsccccccccssccssssssssssssccsssccssccssssssccccccccsssccssssccssssccssccsssscccccsssssscccsssssssscssssssssssssssssssssssssssssssssscccsssssssssscccssssssssssscccssscccsssssssssssssssssssssssssssssssssscccsssssscccssssssssssssssssssssssssssssssssssssssssssssssssssssssssssssccsssssccssssssssssssccssssssssccsssssssssccsssscccsssssssssssssssssssccssccccssssssccsssccsssssssscccccssssccssccccsssscccccssssssccsssccsssccsssssccccccccccccsssssccssccsssssssssssssssssssssssssscccccssssssssssssssssssssssssssssssscsscccssssscccsssccccccsssscccssssssscccsssssssssssssssssssssssssssssssssccccsscccccssccssssccssssccssssssccsscccccssssssscccssssssscccsssssssccsssccsssc"
   style="fill:#000000;stroke-width:0.17712489"
   d="m 457.24243,743.07729 c -0.60576,-0.32945 -1.67205,-1.66674 -2.36638,-2.97215 -0.69611,-1.30541 -2.50809,-3.9304 -4.02605,-5.83272 -3.99417,-5.00732 -7.84309,-10.75326 -8.29476,-12.38635 -0.27277,-0.98658 -0.75278,-1.56401 -1.59058,-1.91117 -1.46483,-0.60577 -4.96836,-4.2386 -5.9514,-6.16926 -0.39322,-0.77404 -0.75101,-1.45243 -0.79529,-1.50379 -0.12753,-0.15765 -2.76138,1.27352 -4.56097,2.47797 -2.98632,1.9962 -8.19911,1.84742 -9.87471,-0.2834 -0.46584,-0.59159 -1.58172,-1.14954 -2.9633,-1.48076 -1.78542,-0.42864 -2.67281,-0.97596 -4.57336,-2.82691 -1.92889,-1.87399 -2.41244,-2.61968 -2.64448,-4.07742 l -0.28517,-1.78542 -2.29376,0.22849 c -1.26113,0.12399 -3.51062,0.35248 -4.99847,0.50481 -1.7128,0.17712 -3.2343,0.10273 -4.15535,-0.20015 -1.49848,-0.49595 -3.57792,-2.14853 -3.57792,-2.8464 0,-0.21786 1.19736,-0.52429 2.66041,-0.68193 1.46306,-0.15587 2.66042,-0.41979 2.66042,-0.58628 0,-0.1665 -1.38689,-0.40739 -3.08374,-0.53669 -6.58126,-0.49772 -10.02634,-4.82134 -10.00561,-12.55816 0.0115,-4.37675 0.99225,-8.00427 3.59864,-13.31624 1.32561,-2.70116 2.7334,-5.67331 3.12821,-6.60676 0.81548,-1.92535 2.98827,-4.14295 6.56797,-6.69887 1.34969,-0.96533 2.88713,-2.28491 3.41673,-2.93496 1.13892,-1.39928 5.24821,-4.20494 7.83778,-5.35094 1.01315,-0.44812 3.96051,-1.68446 6.54831,-2.7472 2.58956,-1.06098 5.6184,-2.51164 6.73251,-3.22368 1.11235,-0.71027 2.40182,-1.29832 2.86411,-1.30541 0.4623,-0.007 1.19914,-0.2834 1.63487,-0.61285 0.96533,-0.72976 5.45367,-0.81478 6.95569,-0.1293 0.56857,0.2586 1.13537,0.7882 1.25759,1.17434 0.17358,0.54908 0.9175,0.76518 3.38485,0.99012 1.7376,0.15765 4.26517,0.26569 5.61663,0.23912 1.50557,-0.0266 3.37246,0.271 4.82489,0.77404 1.7677,0.61108 2.63384,0.71913 3.40434,0.42687 2.15206,-0.81832 3.69659,-0.47824 5.6981,1.25582 2.35931,2.04047 4.70267,3.26264 6.25605,3.26264 1.688,0 3.88967,1.60652 4.35551,3.18116 0.21609,0.72621 0.55617,1.32135 0.75632,1.32135 1.23102,0 3.38131,1.59058 4.41041,3.26264 0.64119,1.04327 1.91118,2.49569 2.8216,3.22722 1.62246,1.30364 3.28566,3.91446 3.28566,5.15787 0,0.34717 0.26569,0.63057 0.58983,0.63057 1.28593,0 2.75961,2.06704 4.95773,6.95746 1.86512,4.14827 2.26188,5.40763 2.09893,6.65281 -0.11159,0.84489 -0.0142,2.1503 0.21609,2.90131 0.54909,1.78896 -0.96888,8.82259 -2.37525,11.00123 -1.26113,1.95545 -3.0306,2.8889 -4.83196,2.55059 -1.19737,-0.22495 -1.39575,-0.13815 -1.59236,0.69965 -0.12221,0.52606 -0.085,1.82793 0.0868,2.89422 0.31883,2.00682 -0.3507,7.78286 -1.14068,9.80917 -0.23558,0.60754 -0.93699,1.89701 -1.5587,2.86588 -1.3426,2.09539 -2.38233,3.89321 -2.94204,5.08703 -0.45876,0.97773 -2.00683,2.17155 -4.15004,3.20065 -3.37954,1.62246 -5.05514,2.70824 -5.48024,3.54958 -0.38791,0.76695 -3.07489,2.88182 -5.09943,4.01542 -0.49772,0.27809 -0.37905,0.79706 0.71382,3.13334 0.72089,1.54099 1.42054,3.60626 1.55515,4.59108 0.22141,1.60298 0.12753,1.89169 -0.90156,2.77554 -0.63057,0.54201 -1.47191,0.98659 -1.86867,0.98659 -0.39676,0 -0.9671,0.085 -1.26644,0.18952 -0.29935,0.10274 -1.0415,-0.0815 -1.64727,-0.41093 z m -0.82008,-3.97468 c -0.91928,-2.08122 -2.0334,-4.30236 -2.47798,-4.9347 -0.44281,-0.63233 -0.70319,-1.25227 -0.57743,-1.37803 0.36842,-0.36842 2.4089,3.13865 3.9304,6.752 0.77404,1.84033 1.64904,3.34766 1.94306,3.34766 0.2958,0 0.53669,-0.0514 0.53669,-0.11513 0,-0.2462 -2.8464,-6.84765 -3.48227,-8.07512 -0.36842,-0.71559 -0.57743,-1.39398 -0.46407,-1.50734 0.2462,-0.24443 2.18395,3.5797 3.51593,6.93444 0.51366,1.29479 1.18851,2.35399 1.50025,2.35399 0.78997,0 0.70672,-0.70141 -0.24089,-2.03339 -0.44459,-0.62348 -1.00962,-1.66497 -1.25405,-2.31325 -1.83147,-4.84614 -2.4886,-5.81324 -4.68318,-6.88662 -3.71431,-1.8173 -6.92204,-5.11182 -7.28338,-7.47998 -0.062,-0.41093 -0.63056,-1.42408 -1.26112,-2.25126 -0.66422,-0.87145 -1.09641,-1.90055 -1.0291,-2.44609 0.12222,-0.97242 -1.25759,-3.60627 -3.63992,-6.95393 -1.34792,-1.89523 -3.91446,-3.32286 -4.53971,-2.5258 -0.15233,0.19307 -0.69964,0.83603 -1.21685,1.4294 -0.89093,1.02024 -0.90865,1.15308 -0.33122,2.53289 0.95648,2.28845 3.71608,4.98961 6.1976,6.06298 1.22925,0.53315 2.23886,1.11589 2.2424,1.29833 0.004,0.18244 -0.17712,0.21786 -0.40207,0.0779 -0.22495,-0.13816 -0.40916,0.10628 -0.40916,0.54555 0,1.00607 4.15889,7.36662 7.50655,11.47946 1.40283,1.72343 3.26441,4.32716 4.13587,5.78667 3.20773,5.37043 4.08804,5.51921 1.78365,0.29934 z m 4.08095,-1.9714 c -1.09463,-2.29199 -1.89346,-4.26339 -1.77302,-4.38384 0.12045,-0.11867 1.05035,1.51442 2.06705,3.63283 2.03162,4.23152 2.10956,3.51593 0.12576,-1.16548 -1.05567,-2.49215 -1.41169,-2.96684 -2.22469,-2.96684 -0.53315,0 -0.96887,0.19306 -0.96887,0.42864 0,0.87854 4.08095,9.04045 4.41572,8.83322 0.19307,-0.11867 -0.54731,-2.0883 -1.64195,-4.37853 z m -0.72621,-5.70165 c 0.56326,-0.18067 0.73861,-0.34716 0.39322,-0.36842 -0.34717,-0.023 -1.33375,-0.4003 -2.19281,-0.8378 -1.54807,-0.78998 -1.55515,-0.78998 -0.84134,0 0.9547,1.05389 0.17004,1.02024 -1.19205,-0.0514 -1.04504,-0.82185 -1.07869,-0.82363 -1.07869,-0.0602 0,1.23988 2.80389,1.99266 4.91167,1.31781 z m 1.73937,-1.08932 c -0.28163,-0.11513 -0.74216,-0.11513 -1.02378,0 -0.28163,0.11336 -0.0514,0.20547 0.51189,0.20547 0.56325,0 0.79352,-0.0921 0.51189,-0.20547 z m -8.13712,-3.67888 c -0.68902,-1.52327 -0.71736,-1.54099 -0.86437,-0.49241 -0.0832,0.59514 0.17004,1.79251 0.56149,2.66042 0.69078,1.52504 0.71912,1.54098 0.86437,0.49241 0.0832,-0.59514 -0.16827,-1.79251 -0.56149,-2.66042 z m 10.7196,2.12018 c 0.43573,-0.32945 0.57388,-0.60576 0.30642,-0.61462 -0.26745,-0.007 -0.60045,0.17181 -0.74038,0.39676 -0.37019,0.60045 -3.12271,0.49949 -5.064,-0.18598 -1.94483,-0.68547 -2.19635,-0.52429 -0.56326,0.36133 1.4666,0.79707 5.03035,0.82186 6.06122,0.0425 z m -13.49869,-2.16092 c -0.31705,-0.84488 -0.6837,-2.02454 -0.81477,-2.62322 -0.18421,-0.84311 -0.42156,-1.03972 -1.05744,-0.87322 -0.99721,0.26037 -1.03618,0.84311 -0.14347,2.17686 0.73507,1.09463 2.24949,2.85348 2.46026,2.85348 0.0726,0 -0.1293,-0.69078 -0.44458,-1.5339 z m 13.62799,0.86968 c 0.70319,-0.1417 1.27884,-0.41801 1.27884,-0.61462 0,-0.54377 -2.43547,-0.41624 -4.50251,0.23558 l -1.8421,0.5792 1.89346,0.0283 c 1.0415,0.0142 2.46912,-0.0886 3.17231,-0.2285 z m -13.0541,-3.4433 c -0.73684,-1.37626 -0.92105,-0.64828 -0.32769,1.30541 0.48001,1.58172 0.55441,1.65611 0.66777,0.67307 0.0691,-0.60754 -0.0833,-1.49848 -0.34008,-1.97848 z m 5.32791,2.47089 c -0.33654,-0.21786 -1.07337,-0.38082 -1.63663,-0.36311 l -1.02378,0.0354 1.02378,0.32768 c 0.56326,0.18067 1.30009,0.34362 1.63663,0.36133 0.54555,0.0319 0.54555,-0.009 0,-0.36133 z m 9.71353,-0.69256 c -0.39853,-0.1045 -0.95116,-0.0974 -1.22747,0.0142 -0.27809,0.11336 0.0478,0.19661 0.72266,0.18952 0.67662,-0.009 0.90334,-0.10096 0.50481,-0.20369 z m -5.38991,-0.77404 c -0.35602,-0.35425 -0.52606,-0.86082 -0.37905,-1.12474 0.17536,-0.31174 0.0762,-0.30111 -0.28163,0.0337 -0.30465,0.28162 -1.29124,0.51189 -2.19634,0.51189 -1.40106,0 -1.92181,-0.27632 -3.54427,-1.87399 -1.47368,-1.45242 -1.95723,-1.73228 -2.14499,-1.24341 -0.55617,1.44888 4.39447,4.24568 7.62877,4.31122 1.42586,0.0301 1.50734,-0.0248 0.91751,-0.61463 z m 5.19153,-0.17004 c 3.94811,0 3.36537,-0.24797 -1.25581,-0.53314 -3.34589,-0.20724 -3.75328,-0.16118 -3.31224,0.37019 0.27809,0.33477 0.76695,0.50835 1.08755,0.38613 0.31882,-0.12399 1.88638,-0.22318 3.4805,-0.22318 z m -12.99388,-1.22924 c -1.18851,-1.23988 -1.43294,-1.40992 -1.43294,-1.00253 0,0.27986 2.0883,2.23177 2.38764,2.23177 0.12222,0 -0.30819,-0.55262 -0.9547,-1.22924 z m 5.90003,0.26391 c -0.0939,-0.0797 -0.81478,-0.26391 -1.60298,-0.40915 -1.00784,-0.18421 -1.2505,-0.14348 -0.81832,0.13992 0.5544,0.36311 2.82869,0.6164 2.4213,0.26923 z m 8.42583,-0.69787 c -2.47621,-0.1665 -4.91699,-0.43395 -5.42356,-0.59514 -0.55618,-0.17712 -0.92105,-0.12399 -0.92105,0.13639 0,0.59337 1.53036,0.77226 6.5483,0.76518 l 4.29705,-0.005 z m -7.16293,-0.7882 c 0,-0.47293 -6.23657,-3.68774 -7.15407,-3.68774 -1.56225,0 -0.0655,2.08653 2.44786,3.41142 1.35855,0.71736 4.70621,0.91219 4.70621,0.27632 z m 14.19302,-0.92637 c 0.5048,-0.5048 0.55617,-0.71558 0.17535,-0.71558 -0.2958,0 0.0319,-0.53492 0.73153,-1.18851 0.69964,-0.65182 1.27175,-1.39574 1.27175,-1.6508 0,-0.25329 -0.64119,0.17889 -1.42585,0.96178 -0.78289,0.78467 -2.11842,1.6331 -2.96684,1.88638 -2.33274,0.69611 -8.67027,0.97419 -10.52299,0.46053 -2.33274,-0.64651 -2.29731,-0.24266 0.0443,0.49772 2.91193,0.92105 11.69555,0.7457 12.69277,-0.25152 z m -27.08594,0.10274 c -0.13816,-0.22495 -0.33477,-0.40916 -0.43396,-0.40916 -0.0992,0 -0.17889,0.18421 -0.17889,0.40916 0,0.22494 0.19483,0.40915 0.43218,0.40915 0.23912,0 0.3206,-0.18421 0.18067,-0.40915 z m 1.43294,-0.81832 c 0,-0.4499 0.19661,-0.81832 0.4375,-0.81832 0.76518,0 0.21255,-1.82616 -0.59868,-1.98203 -0.66776,-0.12753 -0.74039,0.0301 -0.52252,1.1212 0.30819,1.54099 -0.56857,1.75354 -1.53568,0.37374 -0.34539,-0.49241 -0.76872,-0.75455 -0.94053,-0.58274 -0.29934,0.29934 2.21229,2.67281 2.85348,2.69584 0.16827,0.005 0.30643,-0.35779 0.30643,-0.80769 z m 3.06603,0.005 c 0.14347,-0.23203 -0.0213,-0.30111 -0.38436,-0.16118 -0.7085,0.271 -0.83957,0.56503 -0.24975,0.56503 0.21078,0 0.49773,-0.18244 0.63411,-0.40385 z m 7.54021,-0.15764 c -0.41625,-0.37373 -2.83046,-1.48608 -2.83046,-1.30364 0,0.25329 2.12196,1.417 2.62676,1.44003 0.20547,0.009 0.29757,-0.0531 0.2037,-0.13639 z m 6.99289,-0.27277 c -2.18749,-0.16827 -4.94533,-0.67839 -6.30565,-1.16548 -3.05894,-1.09463 -4.31653,-1.07692 -1.87929,0.0283 3.01466,1.3674 3.70191,1.49316 7.97947,1.46305 l 4.09336,-0.0266 z m 3.40788,-0.76695 c 1.12474,-0.18598 2.35222,-0.70319 2.85348,-1.20445 l 0.87854,-0.87854 h -2.20875 c -1.93951,0 -8.9944,1.08578 -9.36813,1.4418 -0.21964,0.21077 3.28567,0.92459 4.64067,0.94584 0.67662,0.0106 2.11664,-0.12576 3.20419,-0.30465 z m 4.46355,-0.84312 c 0.89802,-0.81654 1.12651,-1.21862 0.69787,-1.22747 -0.35248,-0.007 -1.16902,0.54023 -1.81553,1.21685 -1.52327,1.58881 -0.62702,1.59766 1.11766,0.0106 z m -23.83393,-0.83071 c -0.26214,-0.48887 -0.5668,-0.79529 -0.68016,-0.6837 -0.11158,0.11336 0.009,0.60399 0.27101,1.09286 0.26214,0.48886 0.56857,0.79706 0.68015,0.68547 0.11336,-0.11336 -0.009,-0.60577 -0.271,-1.09463 z m -3.12625,0.20546 c 0.1293,-0.33831 0.0567,-0.61462 -0.16118,-0.61462 -0.21787,0 -0.39499,0.27631 -0.39499,0.61462 0,0.33831 0.0708,0.61463 0.15941,0.61463 0.0886,0 0.26746,-0.27632 0.39676,-0.61463 z m 7.80589,-0.57211 c 0.88208,-0.34539 0.58806,-0.61285 -1.13182,-1.02555 -0.82364,-0.19661 -1.07515,-0.13993 -0.86969,0.19306 0.20015,0.32414 0.0213,0.38436 -0.58097,0.19307 -0.83071,-0.26392 -1.17256,0.15764 -0.59691,0.7333 0.35602,0.35602 2.16978,0.30111 3.17939,-0.0939 z m 4.32539,-0.60045 c 0,-0.53315 0.37905,-1.45243 0.84489,-2.04225 0.46407,-0.5916 0.72798,-1.2629 0.58628,-1.49317 -0.36842,-0.59514 1.68092,-4.89396 2.99164,-6.27907 0.60577,-0.6412 2.11487,-1.67915 3.35298,-2.30794 1.2381,-0.63057 3.0802,-1.91472 4.09335,-2.85525 l 1.8421,-1.70926 -1.35323,0.22672 c -0.74393,0.12399 -2.21584,0.92991 -3.27327,1.79073 -1.05744,0.86083 -2.77555,2.23886 -3.81881,3.06426 -1.04327,0.82541 -2.54175,2.4709 -3.32995,3.6594 -1.5463,2.33097 -3.28567,7.30463 -2.90308,8.30008 0.36311,0.94761 0.9671,0.72621 0.9671,-0.35425 z m 2.01214,-0.1789 c 0.90334,-2.18218 3.59387,-4.46355 6.62801,-5.62372 3.04124,-1.16193 8.41167,-4.86739 10.29096,-7.10093 1.84033,-2.18572 1.2753,-2.41421 -0.83426,-0.33654 -2.71355,2.67282 -3.04655,2.41953 -0.53137,-0.40384 1.14422,-1.28239 2.07944,-2.69407 2.07944,-3.13689 0,-0.44281 -0.0655,-0.72975 -0.14701,-0.63587 -0.0797,0.0939 -1.25227,1.46836 -2.60374,3.05186 -1.7677,2.07059 -3.19356,3.26795 -5.07285,4.25808 -1.43649,0.75809 -3.59387,2.021 -4.79123,2.80743 -2.54351,1.66852 -6.21177,6.00276 -6.21177,7.34005 0,1.27708 0.62171,1.16194 1.19382,-0.21963 z m 2.99518,-0.17181 c 1.18497,-0.72444 2.7419,-1.7128 3.45925,-2.19458 0.71736,-0.48178 2.55946,-1.19028 4.09336,-1.57287 1.53213,-0.38259 3.16876,-0.94407 3.63637,-1.24519 0.46584,-0.30288 1.29479,-0.64827 1.8421,-0.76517 0.54555,-0.11868 0.34894,-0.1541 -0.43927,-0.0797 -2.00505,0.18775 -7.51364,1.69863 -8.99617,2.46381 -0.75987,0.39321 -1.23633,0.47115 -1.23633,0.20015 0,-0.5792 2.3345,-1.53568 5.69102,-2.33097 1.84741,-0.43749 3.08729,-1.01492 3.92686,-1.82615 l 1.22747,-1.18674 -1.5339,0.63588 c -2.0635,0.85551 -1.96963,0.12753 0.10273,-0.80769 0.90157,-0.40739 1.88284,-1.22748 2.17864,-1.82262 0.43573,-0.87145 -0.18421,-0.53846 -3.16522,1.7004 -2.21583,1.6632 -4.84082,3.21836 -6.52351,3.86132 -3.02352,1.15486 -5.26947,2.84817 -6.2224,4.69204 -1.03972,2.01037 -0.90511,2.02985 1.959,0.27809 z m -18.1057,0.71381 c 0,-0.10627 -0.94408,-1.96254 -2.09893,-4.12524 -2.03162,-3.79933 -2.09362,-4.01365 -1.87398,-6.4562 0.209,-2.30971 0.17535,-2.45495 -0.38614,-1.70571 -0.44812,0.59691 -0.56857,1.53744 -0.44635,3.47873 0.14701,2.30263 0.43041,3.08552 2.1131,5.83095 1.06806,1.74468 2.11133,3.17231 2.31856,3.17231 0.20547,0 0.37374,-0.0868 0.37374,-0.19484 z m 11.61408,-1.74822 c 0.37019,-2.79503 2.28136,-6.48277 4.81425,-9.2902 l 2.19458,-2.43193 -2.21938,1.20445 c -2.52048,1.36918 -4.53262,3.84007 -4.53262,5.56527 0,1.38157 -0.69256,1.56578 -0.92282,0.24443 -0.13639,-0.78112 -0.29226,-0.64296 -1.04327,0.92105 -1.0043,2.09716 -1.10349,3.1971 -0.4251,4.6885 0.80415,1.76593 1.83679,1.32843 2.13436,-0.90157 z m 20.28434,-0.8626 c 0.54909,-0.39676 1.084,-0.98304 1.19028,-1.3001 0.10627,-0.31705 -0.40385,-0.0762 -1.13183,0.53669 -1.46659,1.23456 -2.90308,1.72343 -4.12347,1.4046 -0.44281,-0.11513 -1.46659,0.12753 -2.27605,0.54023 l -1.47014,0.74924 1.36032,0.1417 c 1.49316,0.1541 4.88156,-0.93345 6.45089,-2.07236 z m -31.24837,-0.96002 c -1.3001,-2.60727 -1.38512,-5.50327 -0.23735,-8.03261 0.47646,-1.04858 0.61108,-1.70748 0.32945,-1.61361 -0.85197,0.2834 -2.03694,4.47064 -1.76948,6.25074 0.26746,1.78719 2.37525,6.59967 2.59843,5.93191 0.0744,-0.22672 -0.33831,-1.36917 -0.92105,-2.53643 z m 30.12362,2.66751 c -0.29579,-0.11691 -0.64827,-0.10274 -0.78466,0.0336 -0.13638,0.13461 0.10628,0.23203 0.53846,0.21432 0.47647,-0.0195 0.57211,-0.1169 0.2462,-0.24797 z m -5.83272,-1.80314 1.19028,-1.19028 -1.09286,0.25329 c -1.18674,0.27278 -4.57336,2.09539 -4.57336,2.46027 0,0.68724 3.43445,-0.48178 4.47594,-1.52328 z m -44.10764,0.84312 c 0.82718,-0.23026 1.93244,-0.77581 2.45673,-1.21154 l 0.95293,-0.79529 -1.69863,-0.0142 c -1.22748,-0.009 -2.25303,-0.3879 -3.70722,-1.36563 l -2.0086,-1.35146 -0.72975,0.9671 c -0.40208,0.53137 -1.19383,1.14246 -1.76063,1.35855 -0.89802,0.34185 -0.95824,0.47823 -0.47469,1.06098 1.31072,1.57995 4.16066,2.13258 6.96986,1.35146 z m 27.45613,-0.58451 c -0.51189,-2.68167 4.40864,-8.78008 8.93772,-11.07739 2.48152,-1.25759 4.46709,-3.19534 3.87727,-3.78516 -0.13462,-0.13462 -0.93168,0.40916 -1.77302,1.20799 -0.83957,0.79883 -2.50986,1.97671 -3.71254,2.61613 -2.55237,1.36032 -5.07109,3.74619 -5.79376,5.49265 -0.28162,0.67661 -0.67484,1.23101 -0.87676,1.23101 -0.20193,0 0.0974,-0.91573 0.66422,-2.03339 1.06452,-2.1007 3.76921,-4.45646 6.96455,-6.06653 1.89169,-0.95293 3.95342,-2.95267 3.03769,-2.94736 -0.6961,0.004 -7.31349,4.8054 -9.48681,6.88308 -1.72874,1.65257 -3.16877,5.01263 -3.16877,7.38611 0,1.63309 0.2285,2.09893 1.03441,2.09893 0.29757,0 0.41448,-0.39145 0.2958,-1.00607 z m 20.48272,-1.63664 c 1.07869,-0.62702 1.8669,-1.23456 1.75177,-1.35146 -0.22141,-0.21964 -5.55641,3.1174 -5.55641,3.47519 0,0.11159 0.41447,-0.0638 0.92105,-0.38968 0.50658,-0.3259 1.80313,-1.10703 2.88359,-1.73405 z m -25.35542,1.19205 c -0.13285,-0.34716 -0.33123,-0.54377 -0.4375,-0.43572 -0.10805,0.10627 -0.0744,0.39144 0.0744,0.63056 0.40385,0.65359 0.63942,0.52606 0.36311,-0.19484 z m 4.27048,-5.87346 c 1.11766,-2.25834 3.84007,-4.73278 9.06171,-8.24162 2.37524,-1.59412 1.71988,-1.56755 -0.8874,0.0372 -1.99265,1.2257 -3.26618,1.3674 -1.71103,0.18952 1.23102,-0.93168 0.24089,-0.72621 -1.09817,0.22849 -0.65713,0.46761 -1.44888,1.34261 -1.76062,1.94306 -0.31174,0.60223 -1.13891,1.7376 -1.83856,2.5258 -2.08653,2.34514 -3.73025,5.99214 -3.67534,8.14952 l 0.0478,1.87752 0.36842,-2.21937 c 0.2037,-1.22039 0.875,-3.24139 1.49317,-4.49012 z m 22.92881,5.52098 c 1.42586,-0.74215 2.77201,-2.23 3.1546,-3.48758 l 0.30288,-0.99545 -1.2257,0.99545 c -0.67485,0.54554 -1.15309,1.1212 -1.06452,1.27707 0.0886,0.15587 -0.67131,0.77226 -1.68977,1.36917 -1.01847,0.59691 -1.85273,1.16017 -1.85273,1.2505 0,0.36311 1.33021,0.13462 2.37524,-0.40916 z m -31.83111,-1.64549 c -0.61285,-1.61006 -0.51543,-4.94709 0.19307,-6.64218 0.78289,-1.87398 0.813,-1.77833 -0.5668,-1.77833 -1.34969,0 -1.67029,0.70495 -1.67915,3.70545 -0.004,1.19914 0.37728,2.6303 1.06452,4.01188 1.10349,2.21406 1.73229,2.66219 0.98836,0.70318 z m 6.32513,-4.32716 c 0.40562,-0.7882 1.28061,-2.22823 1.94483,-3.20064 1.39575,-2.03871 1.20976,-2.7171 -0.34539,-1.26999 -2.70116,2.51163 -3.98885,6.36764 -3.13334,9.38231 0.2338,0.82186 0.34185,0.58097 0.54554,-1.22925 0.13816,-1.2381 0.58452,-2.89599 0.98836,-3.68243 z m -2.40713,4.20318 c -0.13461,-0.13639 -0.23203,0.10627 -0.21432,0.53669 0.0195,0.47646 0.1169,0.57388 0.24798,0.24797 0.1169,-0.2958 0.10273,-0.64828 -0.0337,-0.78466 z m -28.54013,0.25506 c 1.58881,-0.55263 2.08653,-1.417 2.14144,-3.71608 0.0425,-1.75885 0.0425,-1.76062 0.36311,-0.40916 0.63942,2.70115 3.4433,4.57868 6.84056,4.57868 2.56654,0 4.41395,-1.19205 7.66242,-4.94002 1.33198,-1.53921 3.20596,-3.21304 4.16067,-3.71962 l 1.73759,-0.92282 -1.61538,-1.18851 -1.61538,-1.18673 -3.15991,2.05819 c -1.73759,1.1336 -4.0349,2.47974 -5.10473,2.99164 -2.14853,1.02909 -2.4833,1.84387 -0.92105,2.23708 0.56325,0.1417 1.02378,0.41625 1.02378,0.61108 0,0.46584 -2.14853,-0.35602 -2.5258,-0.9671 -0.42333,-0.68193 0.35425,-1.44534 2.66573,-2.6179 3.26618,-1.65435 7.63939,-4.70798 7.37016,-5.14371 -0.53137,-0.85906 -4.16597,-2.10956 -6.89547,-2.36993 l -2.86588,-0.27455 2.55414,-0.0602 c 1.64903,-0.039 3.28035,0.21609 4.60348,0.71913 1.59589,0.60577 2.0511,0.65713 2.0511,0.23203 0,-1.50024 4.8054,-3.22544 6.4013,-2.29731 0.61285,0.35602 0.32414,0.44459 -1.48962,0.45699 -1.74291,0.0106 -2.5258,0.2338 -3.46988,0.99012 -1.1088,0.88563 -1.17257,1.06452 -0.6961,1.95369 0.28871,0.53846 1.44357,1.60652 2.57008,2.37347 1.92889,1.31781 2.24594,1.39752 5.606,1.42055 3.47342,0.0248 3.67712,-0.0283 8.23277,-2.16801 5.55109,-2.60728 8.20265,-3.04301 11.43164,-1.88284 1.86158,0.66953 2.37347,0.68902 5.51213,0.20015 2.02985,-0.31528 5.07817,-0.45344 7.38256,-0.33299 5.90889,0.30996 6.7768,-0.47824 8.45594,-7.6766 0.95293,-4.08272 0.84135,-5.14725 -0.84843,-8.169 -0.62879,-1.12651 -1.26998,-2.74366 -1.42585,-3.59563 -0.1541,-0.85197 -0.63411,-1.95723 -1.06452,-2.45495 -0.78289,-0.90688 -0.78289,-0.90511 -0.57743,1.54807 0.18952,2.2796 0.17535,2.33805 -0.21609,0.81832 -0.23026,-0.8998 -0.50835,-2.06705 -0.61817,-2.59311 -0.45521,-2.19635 -3.84892,-4.04022 -3.84892,-2.09185 0,0.47293 -1.20622,2.1255 -2.76492,3.78516 -1.51973,1.6207 -3.06603,3.40788 -3.43268,3.96937 -0.36842,0.56326 -0.77935,0.91751 -0.91396,0.78998 -0.13462,-0.1293 1.23278,-1.87575 3.04123,-3.88258 1.80667,-2.00682 3.39194,-4.07387 3.52301,-4.59285 0.49241,-1.96608 -0.73684,-3.82412 -4.16952,-6.30387 -3.51593,-2.54174 -4.12524,-2.77201 -4.41395,-1.66498 -0.1169,0.44282 -0.20546,0.29049 -0.2338,-0.40207 -0.0372,-0.86791 -0.40916,-1.3001 -1.66852,-1.94306 -0.89271,-0.45521 -1.99265,-0.82717 -2.44609,-0.82717 -0.71028,0 -0.7705,0.1417 -0.43573,1.02378 0.21432,0.56148 0.2462,1.02201 0.0726,1.02201 -0.17535,0 -0.55086,-0.64296 -0.83603,-1.43117 -1.04504,-2.89068 -4.01011,-4.17306 -10.14571,-4.38738 -3.02353,-0.10628 -3.30161,-0.0531 -2.96685,0.57211 0.2037,0.38082 0.35957,0.93345 0.34894,1.22925 -0.0124,0.2958 -0.29403,-0.10628 -0.62702,-0.89448 -0.78289,-1.85804 -3.49822,-3.7887 -5.40231,-3.84538 -1.25227,-0.0354 -1.63309,0.19483 -2.7171,1.64726 -0.69255,0.9299 -1.76062,2.58602 -2.3717,3.68419 -0.61285,1.09641 -1.79959,3.06604 -2.63739,4.37499 -1.44179,2.25303 -1.49493,2.45495 -0.98127,3.6842 0.29757,0.71558 0.59868,2.0387 0.66776,2.9385 l 0.12399,1.63663 -0.29757,-1.64726 c -0.16296,-0.90688 -0.604,-2.08653 -0.97773,-2.61968 -0.60577,-0.86437 -0.6164,-1.12651 -0.0974,-2.36638 0.3206,-0.76696 0.97773,-1.95015 1.46128,-2.63031 0.66953,-0.94053 0.76695,-1.34969 0.40385,-1.7128 -0.36311,-0.36133 -0.56858,-0.32945 -0.8626,0.13462 -0.333,0.52606 -0.38613,0.51897 -0.39145,-0.062 -0.007,-0.77049 1.07338,-1.32843 1.43648,-0.74215 0.48001,0.77758 1.0167,0.35602 1.98912,-1.56224 1.11588,-2.20343 0.91573,-2.85525 -1.22039,-3.96937 -0.72976,-0.38082 -0.9246,-0.62171 -0.50481,-0.62348 0.37728,-0.002 1.22393,0.4499 1.88107,1.0043 l 1.19559,1.0043 0.84843,-1.146 c 0.46584,-0.63234 1.55338,-1.47368 2.41598,-1.87221 1.41346,-0.65182 2.96861,-2.06705 2.99341,-2.72241 0.005,-0.13639 -0.43041,-0.16473 -0.96533,-0.0638 -0.53669,0.10273 -1.48076,-0.0779 -2.09716,-0.40031 -1.08223,-0.56857 -1.04503,-0.58274 1.07692,-0.43041 1.20976,0.0868 2.3841,0.0124 2.61082,-0.1665 0.63588,-0.50303 2.75784,-3.43091 2.59665,-3.58501 -0.37727,-0.35779 -4.72746,-1.44711 -5.77781,-1.44711 -1.66143,0 -1.23102,0.92814 0.65182,1.40283 0.82717,0.20901 1.50379,0.53138 1.50379,0.71559 0,0.51012 -0.24089,0.44281 -3.41143,-0.96533 -1.88638,-0.83957 -3.80818,-1.36386 -5.38813,-1.47191 l -2.45673,-0.1665 -0.68016,1.77834 c -0.37373,0.97773 -1.37803,3.43445 -2.23177,5.46076 -1.45774,3.45925 -1.5587,3.97291 -1.66143,8.46657 -0.0974,4.17837 -0.29403,5.3474 -1.55516,9.24769 -0.79352,2.45495 -1.44179,5.24643 -1.44179,6.20114 v 1.73759 l 1.22216,-1.02909 c 0.70318,-0.5916 2.22646,-1.23633 3.58146,-1.51442 1.29656,-0.26746 3.46279,-0.75809 4.81426,-1.08932 1.34969,-0.33299 3.64523,-0.75986 5.09942,-0.94939 3.61689,-0.47115 4.2386,-1.42762 2.81806,-4.33424 -0.23203,-0.47293 -1.09463,-1.25228 -1.91826,-1.73051 -0.82363,-0.47647 -1.29301,-0.87146 -1.04327,-0.87677 0.24975,-0.005 1.13183,0.4499 1.959,1.01138 1.23456,0.8378 1.54453,0.91219 1.73583,0.41447 0.27454,-0.71558 0.009,-3.74619 -0.42865,-4.91344 -0.30819,-0.81655 -0.30642,-0.81655 0.35425,-0.005 0.54378,0.66953 0.63588,1.63486 0.51544,5.42356 -0.13993,4.3803 -0.10628,4.60879 0.66953,4.60879 0.44813,0 1.12651,0.28163 1.50556,0.62525 0.54555,0.49241 0.93345,0.53315 1.8297,0.19307 0.62525,-0.23735 1.22925,-0.34008 1.34084,-0.22672 0.11336,0.11158 -0.32591,0.40561 -0.97596,0.65182 -0.64828,0.24797 -1.77834,0.90687 -2.51163,1.46482 -1.13183,0.86437 -1.33198,1.2753 -1.33021,2.73481 0,0.96001 0.34185,2.27605 0.77049,2.98101 0.70142,1.14954 0.90865,1.23987 2.35222,1.02024 0.86968,-0.13285 2.33096,-0.64119 3.2467,-1.13006 2.86057,-1.52504 6.70595,-6.42786 7.57563,-9.66039 0.51012,-1.89524 1.69509,-3.16168 2.93673,-3.14042 0.79529,0.0142 0.75101,0.0903 -0.33654,0.56325 -0.99367,0.43396 -1.44356,1.05921 -2.14852,2.99164 -1.18497,3.25024 -4.57691,7.66951 -7.08145,9.22644 -1.34615,0.83603 -1.99974,1.5215 -2.0086,2.1007 -0.0124,0.78112 -0.0514,0.79352 -0.43041,0.14347 -0.65005,-1.11766 -1.68269,-0.86437 -4.6761,1.14245 -1.52504,1.02202 -3.57438,2.07414 -4.55742,2.33628 -1.90055,0.50835 -2.03517,0.71027 -1.34261,2.00328 0.44813,0.8378 5.18445,3.32818 5.71051,3.00404 0.15764,-0.0992 0.50835,-1.30541 0.77935,-2.68344 0.271,-1.37803 0.58451,-2.41421 0.69787,-2.30085 0.11159,0.11159 -0.0195,1.3426 -0.29403,2.73481 l -0.49772,2.52934 1.29655,1.29655 c 1.21508,1.21508 1.47723,1.29479 4.25454,1.29479 3.3087,0 5.9266,-1.02024 6.63864,-2.5878 0.22141,-0.49063 0.54909,-0.89094 0.72622,-0.89094 0.17712,0 0.0514,0.52606 -0.28163,1.16903 -1.04681,2.02276 -6.58196,3.86841 -8.91824,2.97215 -0.71736,-0.27454 -1.19914,-0.28517 -1.35855,-0.0266 -0.61993,1.00429 -3.51416,2.02276 -5.59714,1.96962 l -2.16447,-0.0567 2.45495,-0.2834 c 1.35146,-0.15409 2.82337,-0.4924 3.27504,-0.74746 2.01922,-1.15131 2.02099,-1.16194 0.5668,-2.48507 -0.76164,-0.69255 -1.5711,-1.26644 -1.79605,-1.27529 -0.83425,-0.0337 -4.66369,-2.01391 -5.4891,-2.83755 -0.46938,-0.46938 -0.85374,-1.31426 -0.85374,-1.87752 0,-1.4294 -0.69787,-1.27884 -1.02732,0.21964 -0.40031,1.82261 -4.1093,6.47037 -5.20393,6.51996 -0.16296,0.007 0.49063,-0.77403 1.45419,-1.73582 1.86867,-1.87044 3.54959,-4.88688 3.54959,-6.37473 0,-1.26112 -1.09818,-3.75681 -2.1379,-4.86562 -0.47824,-0.50834 -0.68193,-0.92636 -0.45344,-0.92636 0.71913,0 1.78719,1.47014 2.57008,3.53541 0.68902,1.82262 0.875,2.00151 2.22646,2.11665 1.05389,0.0921 2.18926,-0.25329 3.97645,-1.20445 1.37449,-0.7333 2.5878,-1.56047 2.69407,-1.83856 0.10628,-0.27809 -0.17889,-1.02555 -0.63587,-1.65966 -0.45522,-0.63411 -0.94762,-1.82439 -1.09287,-2.64625 -0.2338,-1.3178 -0.0939,-1.68091 1.20623,-3.12094 1.13359,-1.25227 1.35323,-1.72519 0.95824,-2.0511 -1.28947,-1.06275 -16.10951,1.45419 -18.98956,3.22544 -1.2629,0.77758 -2.60196,2.94028 -2.60196,4.20318 0,2.47089 3.07489,5.17027 5.8894,5.17027 0.82717,0 1.47899,0.20369 1.47899,0.46407 0,0.31882 -0.542,0.37019 -1.73936,0.16472 -0.95648,-0.16472 -2.29023,-0.32768 -2.9633,-0.36133 -1.12475,-0.0567 -1.22394,0.0478 -1.22748,1.3001 -0.005,1.70571 -0.93522,2.43015 -3.56552,2.77909 -1.50556,0.20015 -2.22646,0.5544 -2.99696,1.46836 -1.13714,1.35146 -1.25227,1.9714 -0.50303,2.71533 0.28163,0.27808 0.97242,1.46659 1.53567,2.63916 0.88031,1.83678 1.22216,2.168 2.45495,2.38587 1.24696,0.21963 1.2877,0.26037 0.30643,0.30642 -0.77581,0.0372 -1.12651,0.27632 -1.13183,0.7705 -0.002,0.39321 -0.19838,0.9919 -0.43395,1.33021 -0.31883,0.45875 -0.36311,0.28871 -0.17359,-0.67662 0.15233,-0.77404 0.0708,-1.4046 -0.20192,-1.57287 -0.24975,-0.1541 -0.91219,-1.31781 -1.47368,-2.58248 -1.52504,-3.44862 -2.41775,-3.7214 -5.28186,-1.61361 -2.57186,1.89169 -3.22722,3.45216 -2.95445,7.02832 0.13108,1.72696 0.0815,2.56476 -0.12221,2.07767 -0.56326,-1.34083 -0.44813,-5.4767 0.18598,-6.7024 0.76341,-1.47723 4.02605,-4.14296 5.06754,-4.14296 0.72621,0 2.79149,-2.61259 2.62676,-3.32109 -0.0319,-0.13815 1.06453,-0.36842 2.43901,-0.51189 2.95976,-0.3082 3.60095,-0.74746 3.60981,-2.46026 0.004,-0.70319 0.1665,-1.53213 0.36311,-1.8421 0.2338,-0.37019 0.023,-1.05212 -0.61994,-2.00151 -0.53846,-0.78998 -0.97773,-1.96432 -0.97773,-2.60905 0,-2.02808 -1.59235,-1.55162 -3.96583,1.18319 -2.32033,2.67459 -2.99164,3.78693 -2.99164,4.96304 0,0.45167 -0.21078,0.95116 -0.46938,1.11057 -0.46229,0.28695 -0.32059,-0.81831 0.3206,-2.49037 0.25683,-0.66953 -7.14168,5.06577 -8.53211,6.61384 -0.72444,0.80769 -1.81553,3.15814 -2.40535,5.18799 -0.27809,0.95647 -0.15587,1.34261 0.69256,2.19103 0.56679,0.5668 0.95647,1.10349 0.86614,1.19383 -0.0903,0.0903 -0.49772,-0.20547 -0.90688,-0.65714 -0.40916,-0.45167 -0.89803,-0.82009 -1.08932,-0.82009 -0.47824,0 -0.42864,3.15991 0.0797,4.98961 0.5119,1.84742 3.42383,4.53086 5.8469,5.38991 2.13081,0.75633 2.69407,0.78467 4.31653,0.21787 z m 5.78313,-3.70014 c -0.78821,-0.68902 -2.31325,-1.8049 -3.3884,-2.47975 -1.83147,-1.15131 -3.16168,-2.8712 -3.15991,-4.09159 0,-0.29225 0.32237,0.11159 0.71736,0.89626 0.41801,0.83603 1.6508,2.0511 2.96507,2.92433 1.91649,1.26998 5.03566,4.07387 4.47771,4.0225 -0.0992,-0.0106 -0.82363,-0.58097 -1.61183,-1.27175 z m 55.12658,-12.22339 c 1.33906,-0.53846 2.24948,-2.16624 1.97848,-3.53364 -0.21786,-1.10349 -0.20546,-1.11766 0.24798,-0.24798 0.59691,1.14423 1.56578,1.17611 2.7348,0.0868 0.77581,-0.72267 0.89626,-1.26821 0.89626,-4.09335 0,-2.76315 -0.13108,-3.3884 -0.85906,-4.11638 -0.83603,-0.83603 -1.50202,-0.87146 -3.43977,-0.18421 -0.80591,0.28694 -0.80591,0.28162 -0.023,-0.35603 1.09286,-0.89093 2.92964,-0.81123 3.91092,0.17182 0.6837,0.68193 0.82008,1.36386 0.82008,4.11815 0,3.7763 -0.32413,4.60702 -2.15561,5.55641 -0.72267,0.37196 -1.8049,1.20268 -2.40358,1.84564 -0.60045,0.64119 -1.43117,1.15485 -1.84741,1.14068 -0.64119,-0.0212 -0.61994,-0.0815 0.13993,-0.3879 z m -6.39953,-1.98911 c -0.26745,-0.64474 -0.95824,-1.38866 -1.53567,-1.65258 -0.57565,-0.26214 -0.93876,-0.58805 -0.80415,-0.72267 0.13462,-0.13461 0.68371,0.0425 1.21862,0.39322 0.88563,0.58097 1.0663,0.57566 2.02808,-0.0549 1.1212,-0.73507 2.47798,-2.31502 2.86588,-3.33703 0.16119,-0.42687 0.24266,-0.34894 0.26569,0.25506 0.0195,0.53314 -0.6837,1.52859 -1.81376,2.57185 -1.51796,1.39752 -1.80136,1.88107 -1.59412,2.71178 0.34539,1.37449 -0.0337,1.27707 -0.63057,-0.16472 z m -20.8352,-1.01139 c -0.0478,-1.25581 0.10451,-1.61715 0.75456,-1.78719 0.62879,-0.16472 0.76695,-0.45698 0.60576,-1.29124 -0.20369,-1.05035 -0.19661,-1.05389 0.271,-0.15764 0.4251,0.81655 0.78467,0.91928 3.1794,0.90334 1.48607,-0.0106 3.4309,-0.27809 4.32184,-0.59691 1.8173,-0.64651 2.40359,-0.52606 1.02378,0.21255 -0.49595,0.26569 -2.75429,0.64473 -5.01617,0.84134 -2.26366,0.19661 -4.25277,0.49949 -4.42104,0.67485 -0.17004,0.17535 -0.38613,0.86968 -0.48178,1.5463 -0.1541,1.08046 -0.18244,1.03972 -0.23735,-0.3454 z m 14.98654,-4.32184 c 0.12576,-1.30896 0.0195,-2.08653 -0.31351,-2.292 -0.27809,-0.17181 -2.40181,-0.33299 -4.72038,-0.35956 -3.88081,-0.0443 -5.19153,-0.29934 -4.59816,-0.89448 0.12753,-0.12753 1.02555,-0.0177 1.9962,0.24266 1.06275,0.28694 2.76846,0.36842 4.2935,0.20369 l 2.53289,-0.271 0.88562,-3.83652 c 0.75278,-3.25202 1.1956,-4.25454 2.91017,-6.57665 1.11234,-1.50733 2.01568,-2.5754 2.00859,-2.37702 -0.007,0.20015 -0.2834,0.7209 -0.61462,1.1584 -0.32945,0.43573 -0.62171,1.35678 -0.64828,2.04579 -0.0248,0.68902 -0.13107,0.92991 -0.2338,0.53492 -0.51721,-1.97494 -1.9041,0.53846 -2.98987,5.41293 -0.46584,2.09185 -0.74924,3.90207 -0.63057,4.02251 0.12045,0.12045 0.21787,-0.009 0.21787,-0.28517 0,-0.37373 1.1088,-0.47469 4.28819,-0.38967 3.79933,0.0992 4.4175,0.0159 5.42357,-0.73507 0.81654,-0.60754 1.2009,-1.32667 1.36917,-2.55769 0.1293,-0.94053 0.56503,-2.0263 0.96887,-2.41244 0.70142,-0.66953 0.71027,-0.65536 0.19661,0.32237 -0.29403,0.56326 -0.63765,1.74114 -0.76341,2.61791 -0.15764,1.11411 -0.57565,1.85272 -1.38511,2.45495 -1.03618,0.76872 -1.61538,0.84842 -5.42357,0.73684 -3.28743,-0.0974 -4.27225,-0.004 -4.30059,0.40915 -0.0195,0.29403 -0.007,1.39044 0.0283,2.43724 0.0354,1.04504 -0.1045,2.00683 -0.31174,2.13436 -0.21786,0.13461 -0.2958,-0.59868 -0.18598,-1.74645 z m 15.8084,-0.5668 c 0.0638,-1.30187 0.35602,-2.59134 0.65182,-2.86411 0.43395,-0.40208 0.47823,-0.34185 0.23026,0.32059 -0.17004,0.45167 -0.46407,1.73937 -0.65359,2.86588 l -0.3454,2.0458 z m -28.14869,-16.47054 c 0.85551,-1.30718 0.5668,-4.33424 -0.63765,-6.69709 -0.99898,-1.95546 -1.06452,-3.03238 -0.22672,-3.72671 0.69433,-0.57742 0.78998,-0.27808 0.24266,0.74747 -0.2586,0.48001 -0.0744,1.38335 0.59691,2.94027 0.53315,1.23457 0.97596,3.01998 0.98482,3.96583 0.0177,1.78011 -0.66776,3.80641 -1.28593,3.80641 -0.19484,0 -0.0478,-0.4676 0.32591,-1.03618 z m 17.34761,-0.60222 c 0,-0.4499 0.16827,-0.81832 0.37196,-0.81832 0.2037,0 0.27455,0.36842 0.15587,0.81832 -0.1169,0.45167 -0.2834,0.81832 -0.37019,0.81832 -0.0868,0 -0.15764,-0.36665 -0.15764,-0.81832 z m -4.33779,35.177 c 3.25202,-1.78896 4.44584,-2.71355 6.04173,-4.68318 1.09286,-1.34969 1.81376,-2.5134 1.60121,-2.58425 -0.21432,-0.0708 -1.29124,0.75809 -2.39473,1.84032 -3.00049,2.94559 -6.23479,5.58121 -6.51111,5.3049 -0.38259,-0.38259 0.68193,-1.47191 3.29275,-3.37423 2.54706,-1.85627 3.9676,-3.43977 3.08552,-3.43977 -0.27454,0 -1.52859,0.9795 -2.78618,2.17687 -1.25935,1.19736 -3.46102,2.80034 -4.89573,3.56198 -2.68698,1.42762 -3.91091,2.82337 -5.19861,5.9266 l -0.67839,1.63663 2.19635,-2.06705 c 1.20622,-1.13714 4.01896,-3.07134 6.24719,-4.29882 z m -17.71072,2.89245 c 0.29403,-0.78466 1.41346,-2.58425 2.4833,-3.99948 2.44078,-3.22367 3.0802,-4.35904 2.31502,-4.10398 -0.65891,0.21963 -4.30591,5.34031 -5.0392,7.07437 -0.28518,0.67661 -0.62526,1.87221 -0.75633,2.66041 -0.24797,1.49316 -0.0709,1.20445 0.99721,-1.63132 z m -4.81425,-3.62752 c -0.36488,-0.55086 -0.94585,3.49822 -0.68193,4.75404 0.29048,1.38511 0.34362,1.23987 0.54909,-1.54099 0.12398,-1.688 0.18421,-3.13511 0.13284,-3.21305 z m 2.14675,-1.23279 0.69611,-1.08046 -0.95117,0.82009 c -0.82894,0.71204 -0.91927,0.72444 -0.69078,0.10096 0.3631,-0.99544 0.004,-0.89625 -0.55795,0.15233 -0.36664,0.68547 -0.35602,0.8006 0.0549,0.54731 0.38259,-0.23734 0.4375,-0.1169 0.20724,0.4623 -0.17181,0.43041 -0.38436,1.88815 -0.47292,3.23784 l -0.16296,2.45673 0.5916,-2.80743 c 0.32591,-1.54453 0.90511,-3.29453 1.28592,-3.88967 z m 30.31847,3.96583 c 0.52075,-0.49064 0.94408,-1.08932 0.94053,-1.33021 -0.004,-0.24266 -0.17712,-0.17004 -0.3879,0.16119 -0.20901,0.33122 -0.51189,0.46938 -0.67307,0.30996 -0.16119,-0.16118 0.0142,-0.63056 0.3879,-1.04503 1.04681,-1.15663 0.80415,-1.45774 -0.40562,-0.50658 -0.9051,0.71204 -2.18926,2.55591 -2.18926,3.1422 0,0.50303 1.5215,0.0248 2.32742,-0.73153 z m -40.68381,-0.34716 c -0.17713,-0.67662 -0.32591,-0.73684 -0.82009,-0.32591 -0.52429,0.43395 -0.50481,0.54023 0.15233,0.79706 0.41624,0.16472 0.78466,0.31174 0.82008,0.32768 0.0354,0.0159 -0.0337,-0.34362 -0.15232,-0.79883 z m 12.72111,-4.45824 c 0.39321,-0.48886 0.32236,-0.50303 -0.45344,-0.0903 -0.50304,0.26923 -1.19383,1.02555 -1.53391,1.68446 -0.99898,1.93243 -0.7085,2.30262 0.45167,0.57565 0.58806,-0.875 1.27884,-1.85095 1.53568,-2.16978 z m -45.06943,0.12399 c 1.92712,-0.18952 2.76315,-0.44104 2.76315,-0.82895 0,-0.35779 -0.48178,-0.55794 -1.33907,-0.55794 -0.73507,0 -2.66573,-0.36842 -4.28819,-0.81832 -2.60728,-0.72266 -3.30869,-0.7634 -6.0435,-0.35602 -3.05895,0.45344 -3.08729,0.46938 -2.36285,1.28239 1.75531,1.9714 2.91371,2.10247 11.27046,1.27884 z m 73.9089,-1.59412 c -0.12576,-0.12576 -0.55263,0.2834 -0.94762,0.91042 l -0.71913,1.13891 0.94762,-0.91042 c 0.52252,-0.49949 0.84489,-1.01316 0.71913,-1.13891 z m -11.3909,-1.88816 c 0,-0.77049 -0.7705,-0.29579 -1.88107,1.16017 l -1.1584,1.51973 1.51974,-1.16016 c 0.83603,-0.63765 1.51973,-1.32136 1.51973,-1.51974 z m -59.83633,1.19383 c 0.74569,-0.7457 0.58628,-1.55516 -0.3082,-1.55516 -2.19635,0 -5.17027,-0.99367 -6.27376,-2.09716 -0.94053,-0.94053 -1.53745,-1.17611 -2.98633,-1.17611 -1.92889,0 -2.0759,0.19661 -1.34615,1.79959 0.53669,1.17788 0.69079,1.25404 5.06223,2.49215 3.83476,1.08754 5.17736,1.21153 5.85221,0.53669 z m 70.85881,-1.68092 c -0.0283,-0.86437 -0.0407,-0.86791 -0.38082,-0.0779 -0.48355,1.12651 -0.48355,1.52681 0,1.22747 0.22495,-0.13993 0.39676,-0.65713 0.38082,-1.14954 z m -82.42329,-1.61361 c -0.52429,-1.25758 -0.71559,-1.35146 -3.49291,-1.73936 -3.02387,-0.42156 -4.09743,-1.13537 -4.09743,-2.72418 0,-0.39854 -0.55263,-1.59767 -1.22783,-2.66219 -0.67537,-1.06452 -1.21986,-2.31502 -1.20994,-2.77732 0.0113,-0.52783 0.22229,-0.26746 0.56698,0.69787 0.302,0.84666 0.7944,1.85981 1.0941,2.25126 0.2997,0.39145 0.57229,0.76518 0.60541,0.82717 0.0333,0.0638 0.61463,-0.20192 1.29195,-0.59159 1.11483,-0.63942 1.25493,-0.95648 1.47775,-3.34235 0.13533,-1.44888 0.14773,-2.79503 0.0275,-2.98987 -0.30448,-0.49241 -2.21654,-0.44458 -2.21654,0.0567 0,0.22495 -0.20688,0.40916 -0.45946,0.40916 -0.31741,0 -0.302,-0.18952 0.0501,-0.61462 0.28021,-0.33654 0.93115,-0.61286 1.44658,-0.61286 0.78644,0 0.98145,-0.27985 1.21278,-1.73936 0.63162,-3.98885 2.37506,-6.03819 5.13644,-6.03819 1.06275,0 1.20799,-0.14347 1.20799,-1.19382 0,-1.45242 0.36488,-2.48861 0.87677,-2.48861 0.21963,0 0.20015,0.33477 -0.0425,0.79175 -0.88031,1.64195 -0.47292,4.13056 1.25404,7.68191 0.92282,1.89701 1.60121,3.52478 1.50911,3.61689 -0.25506,0.25683 -3.59741,-6.53591 -3.59741,-7.31349 0,-0.86968 -1.64549,-0.91396 -3.24315,-0.0868 -2.16854,1.1212 -3.3048,6.71835 -1.87239,9.22467 0.76004,1.3302 0.75827,2.06704 -0.002,1.06274 -0.54183,-0.71558 -0.61144,-0.72266 -0.85693,-0.0832 -0.50959,1.32843 0.14931,4.0225 1.25209,5.12068 l 1.06807,1.06275 8.88635,-0.10805 8.88813,-0.10805 1.57464,-1.57464 c 1.56932,-1.56932 1.57287,-1.57995 0.91396,-2.85348 -0.96001,-1.8545 -2.80034,-2.6675 -6.07184,-2.67813 -1.90409,-0.005 -2.55591,-0.12576 -2.09361,-0.38613 0.98481,-0.55086 5.32968,-0.0514 6.55893,0.75455 1.00253,0.65536 1.09817,0.65182 1.8049,-0.0655 0.69787,-0.70673 0.7085,-0.94231 0.15764,-3.53896 -0.32414,-1.53036 -0.66067,-3.55489 -0.74923,-4.50251 -0.0886,-0.94585 -0.30289,-2.08831 -0.47647,-2.5382 -0.17358,-0.4499 -0.1665,-0.68193 0.0177,-0.51544 0.18421,0.1665 0.57034,0.10805 0.85729,-0.13107 0.41801,-0.34539 0.47646,0.007 0.29757,1.74645 -0.22141,2.14499 0.76163,8.33019 1.56578,9.84815 0.21786,0.4127 0.8502,0.71735 1.48962,0.71735 0.85728,0.002 1.83679,-0.75632 4.28288,-3.31046 3.61335,-3.77099 3.79224,-4.41218 2.18041,-7.75453 -0.78998,-1.6384 -0.91751,-2.31325 -0.62525,-3.32818 0.44812,-1.56401 1.52327,-2.80743 2.3965,-2.77023 0.46406,0.0195 0.39676,0.15233 -0.23912,0.45875 -1.54985,0.74924 -1.97495,2.4833 -1.16017,4.73101 0.3879,1.06983 0.79529,2.61791 0.90688,3.44154 0.14524,1.08577 0.43927,1.56047 1.06806,1.72519 1.1708,0.30643 1.46837,-0.32236 1.45597,-3.06957 -0.009,-1.57641 0.46052,-3.7887 1.45419,-6.86005 1.27707,-3.95343 1.46483,-5.0516 1.46483,-8.59587 0,-4.47063 0.50657,-6.49871 3.02529,-12.11888 0.80592,-1.79959 1.46836,-3.67712 1.47191,-4.17129 0.007,-1.41346 -1.49494,-2.17333 -4.28111,-2.16624 -3.43268,0.009 -3.91446,0.39499 -2.53466,2.03516 0.60046,0.71205 1.09109,1.42232 1.09109,1.57819 0,0.44812 -1.65789,3.41674 -2.22469,3.98531 -0.28517,0.2834 -0.62525,1.93951 -0.75632,3.67711 -0.32237,4.24922 -1.80845,7.13459 -6.11967,11.88508 -5.11713,5.63434 -4.89041,5.28718 -3.97999,6.11258 0.4251,0.38436 0.98481,1.36563 1.24519,2.18218 0.26037,0.81654 0.83071,2.13081 1.26644,2.91901 l 0.79352,1.43117 -0.89625,-1.09109 c -0.49418,-0.59868 -1.2877,-2.07236 -1.76594,-3.27326 -0.76872,-1.93244 -1.06983,-2.25303 -2.6179,-2.78795 -2.42307,-0.83957 -3.00581,-0.3631 -3.61689,2.94559 -0.81301,4.40509 -1.80314,5.79021 -5.16497,7.23201 -2.7968,1.19913 -4.40686,4.25277 -3.22544,6.11966 0.20192,0.31528 1.62778,0.69433 3.37069,0.89448 l 3.02352,0.34717 -3.06958,-0.12399 c -3.6222,-0.14701 -7.43747,-1.3922 -9.07588,-2.9633 -0.63233,-0.604 -1.05566,-1.19205 -0.94407,-1.30364 0.11336,-0.11336 0.71204,0.27986 1.33198,0.875 0.61994,0.59337 1.90763,1.355 2.86057,1.69154 l 1.73405,0.61108 0.002,-1.51619 c 0.002,-2.02631 1.32666,-4.08981 3.10146,-4.83196 l 1.44711,-0.604 -1.83856,-2.04579 c -1.73228,-1.92712 -3.0802,-4.64953 -2.55768,-5.17205 0.1293,-0.1293 0.34716,0.11336 0.48355,0.53846 0.62879,1.9714 1.02909,2.61791 1.61892,2.61791 1.09463,0 2.57717,-1.23102 3.62043,-3.00404 0.55086,-0.93699 1.51619,-2.16447 2.14498,-2.72595 l 1.14246,-1.02379 -1.23456,1.63664 c -0.67839,0.89979 -1.64372,2.31679 -2.14321,3.14574 -0.49949,0.82894 -1.4542,1.74822 -2.12019,2.04402 -0.66599,0.29402 -1.21153,0.6713 -1.21153,0.8378 0,0.1665 0.542,0.90511 1.20445,1.64017 0.99721,1.10526 1.33375,1.25936 1.94483,0.88917 1.16548,-0.70496 2.53997,-2.98278 2.7844,-4.61233 0.12045,-0.81832 0.44813,-2.22469 0.72621,-3.12625 0.41448,-1.3497 0.7085,-1.65966 1.67383,-1.77125 l 1.17257,-0.13285 -0.24443,-2.73126 c -0.7209,-8.09992 -0.7457,-10.11029 -0.14879,-11.82132 0.42865,-1.22216 0.47116,-1.77125 0.14525,-1.88815 -0.25152,-0.0903 -0.31706,-0.31528 -0.14347,-0.50126 0.17181,-0.18421 0.50834,-0.13993 0.74923,0.10096 0.30643,0.30643 0.24444,0.99367 -0.21255,2.33982 -0.82186,2.42307 -0.81831,3.79933 0.0283,9.95973 0.72799,5.28895 1.06807,5.84689 2.46204,4.04199 0.41447,-0.53315 2.17686,-2.57894 3.91977,-4.5468 4.04731,-4.56982 5.49087,-7.5154 5.77073,-11.77349 0.24266,-3.71785 1.05921,-3.41319 -6.9734,-2.59842 -6.18343,0.62702 -7.24264,1.09286 -9.08651,4.00125 -1.0964,1.72874 -2.66219,3.07666 -10.62395,9.1361 -3.10677,2.36462 -4.34665,4.01188 -4.70444,6.2596 -0.30111,1.88106 -1.49848,3.53718 -3.18541,4.41041 -0.66546,0.34362 -1.56933,1.21507 -2.00878,1.93597 -0.50604,0.82895 -0.79954,1.05567 -0.8006,0.61817 -7.1e-4,-0.37905 0.57016,-1.20799 1.26892,-1.84033 3.72512,-3.376 3.99257,-3.70722 4.26712,-5.27478 0.4375,-2.48683 1.72165,-4.09513 5.71759,-7.15584 2.02631,-1.55339 4.60525,-3.53719 5.72999,-4.41041 1.12474,-0.87323 2.88713,-2.67282 3.91623,-3.99948 2.60374,-3.35652 3.72317,-3.79579 10.95163,-4.29705 5.89649,-0.40739 6.02579,-0.4375 7.13105,-1.62601 3.1971,-3.43622 -0.91574,-6.01339 -5.23227,-3.27681 -1.03618,0.65713 -4.21911,2.13436 -7.07437,3.2839 -2.85348,1.14954 -5.87346,2.49923 -6.70772,3.00049 -0.83425,0.50126 -2.53288,1.50911 -3.77453,2.23886 -1.24164,0.72975 -2.57716,1.8173 -2.96861,2.41421 -0.39145,0.59868 -2.3965,2.33097 -4.45646,3.85247 -3.75505,2.772 -5.1763,4.44406 -5.72822,6.73074 -0.16296,0.67662 -0.63712,1.71634 -1.05389,2.31325 -0.92371,1.32313 -3.01733,5.88764 -4.10151,8.94304 -1.16814,3.29098 -1.42692,8.57639 -0.58115,11.86914 1.33499,5.19684 4.22514,7.59334 9.3251,7.73504 l 1.51619,0.0407 z m 25.15173,-24.28382 c -0.63765,-0.35425 -0.78289,-0.57034 -0.38436,-0.57388 0.35071,-0.004 0.99544,0.26391 1.43294,0.59514 0.99367,0.75101 0.32059,0.73684 -1.04858,-0.0213 z m -16.54524,-5.43242 c -0.35425,-0.68547 -0.62525,-1.76239 -0.60222,-2.39118 l 0.0425,-1.146 0.2958,1.22747 c 0.16295,0.67485 0.52783,1.65789 0.80946,2.18395 0.2834,0.52606 0.41978,1.04858 0.30642,1.16371 -0.11513,0.11336 -0.49772,-0.35248 -0.85197,-1.03795 z m 13.94682,-3.1847 c -0.43219,-2.26897 0.26214,-4.75758 2.06882,-7.42331 0.80414,-1.18851 1.54807,-2.0759 1.65257,-1.9714 0.10273,0.10273 -0.26746,0.79884 -0.8254,1.54453 -1.73051,2.32034 -2.08653,3.30515 -2.33451,6.47392 -0.22849,2.92964 -0.25506,2.99164 -0.56148,1.37626 z m -9.91014,33.05504 c 0.33299,-0.6465 0.49241,-1.29124 0.35071,-1.43117 -0.1417,-0.1417 -2.09008,-0.25683 -4.33071,-0.25683 -3.63991,0 -4.01896,0.0673 -3.54781,0.63588 0.77935,0.93876 2.02808,1.53567 3.87018,1.84741 2.78618,0.4747 3.02884,0.42156 3.65763,-0.79529 z m 1.51619,-3.02529 c 0.58097,-1.08578 -0.41802,-1.27884 -4.4848,-0.86614 -1.95369,0.19838 -5.24644,0.32591 -7.31349,0.2834 -4.16775,-0.0868 -6.00471,-0.73861 -6.76068,-2.39827 -0.5567,-1.22216 -0.89767,-1.24873 -1.9838,-0.16296 -0.58486,0.58451 -0.75579,1.11235 -0.56379,1.73937 0.65838,2.14852 1.04008,2.21229 13.00664,2.16092 6.93267,-0.0301 7.75275,-0.10627 8.09992,-0.75632 z m 6.8689,-6.7768 c -0.32059,-0.0974 -0.90156,-0.45698 -1.29124,-0.79529 -0.55617,-0.48532 -0.83426,-0.51189 -1.29832,-0.1293 -0.51012,0.4251 -0.4995,0.6465 0.0815,1.65789 l 0.67131,1.16902 1.20976,-0.86083 c 0.84843,-0.60399 1.03618,-0.91573 0.62702,-1.04149 z m 70.24773,-6.8441 c -0.21786,-1.1584 -1.33375,-3.79225 -4.17306,-9.84992 -0.32945,-0.69964 -1.06275,-1.48431 -1.62955,-1.74291 -0.9547,-0.43573 -1.01138,-0.40384 -0.75455,0.40385 0.16827,0.53314 0.12044,0.7758 -0.12576,0.62525 -0.22141,-0.13816 -0.62348,-1.12829 -0.89271,-2.19989 -0.99367,-3.94812 -3.47165,-6.25428 -7.38788,-6.87068 -1.01315,-0.15941 -2.11841,-0.46052 -2.45495,-0.66953 -0.60754,-0.37728 0.12222,-0.30997 3.30515,0.30643 l 1.25759,0.24443 -0.63765,-1.23456 c -1.08755,-2.10425 -2.93673,-3.105 -6.06476,-3.28213 -3.0802,-0.17358 -3.8259,-0.88208 -0.9299,-0.88208 1.01315,0 1.84209,-0.17004 1.84209,-0.37905 0,-0.98835 -2.18926,-2.88359 -3.60626,-3.12094 -2.92256,-0.48886 -4.10398,-1.05566 -6.40129,-3.06603 -1.66675,-1.45774 -2.66219,-2.02985 -3.53719,-2.02985 -1.7801,0 -3.77984,0.95825 -4.80539,2.30262 -0.49418,0.64651 -1.71103,2.21761 -2.70647,3.48937 l -1.80668,2.31325 2.52935,1.56401 c 2.40181,1.48608 2.7472,1.57818 6.82639,1.80136 4.57868,0.24974 6.79097,0.96887 8.09992,2.63207 0.41093,0.52429 1.3798,1.01139 2.31148,1.16194 3.32464,0.54023 12.20391,6.91496 12.77071,9.16976 0.15764,0.62879 0.53846,0.9423 1.14599,0.9423 1.48077,0 5.06578,3.50885 5.59184,5.4767 0.72798,2.71533 1.67914,4.75049 2.09893,4.49189 0.21432,-0.13107 0.27454,-0.8502 0.13461,-1.59766 z m -34.19927,-27.99282 c 0,-0.23912 0.18421,-0.43396 0.40916,-0.43396 0.22495,0 0.40916,0.0815 0.40916,0.18067 0,0.0992 -0.18421,0.29403 -0.40916,0.43396 -0.22495,0.13815 -0.40916,0.0567 -0.40916,-0.18067 z m 2.72595,-0.45875 c -1.99088,-0.17713 -3.73911,-0.4499 -3.88789,-0.60577 -0.48178,-0.50658 7.28692,0.0443 7.79527,0.55263 0.26922,0.26746 0.31351,0.46229 0.0992,0.43041 -0.21433,-0.0319 -2.01746,-0.20192 -4.00657,-0.37727 z" /><g
   id="g2986"
   transform="matrix(0.51784242,0,0,0.51784242,66.845228,628.11995)"><g
     id="g3880"
     transform="matrix(0.22637141,0,0,0.22637141,-43.36376,177.52842)"><path
       id="path3854"
       d="m 529.92,-432.97 c 154.34,49.073 122.76,364.87 113.92,381.47 l -27.618,-12.083 c 0,0 22.911,-33.55 8.6827,-158.81 -7.4718,-65.781 -52.53,-111.61 -85.292,-117.32 -32.763,-5.7189 -9.6966,-93.251 -9.6966,-93.251 z"
       sodipodi:nodetypes="cccszcc"
       style="fill:#000000"
       inkscape:connector-curvature="0" /><path
       id="path3866"
       sodipodi:nodetypes="ccccccccccccc"
       inkscape:connector-curvature="0"
       style="fill:#ffccaa"
       d="m 533.42,-426.2 c -4.4538,20.545 -8.4155,42.152 -5.3941,63.354 1.2666,7.6879 4.5336,17.312 13.412,18.591 29.172,7.3849 51.366,30.822 66.34,55.848 14.77,24.452 21.455,52.823 23.454,81.107 3.4401,40.635 5.0915,82.079 -2.6854,122.31 -1.0255,6.4267 -6.6785,17.878 -7.9266,23.626 4.3087,1.4164 14.916,6.6806 20.059,8.4034 4.9129,-26.6 6.3246,-59.23 6.73,-86.274 0.53974,-46.041 -2.0586,-92.253 -11.888,-137.28 -9.0149,-41.041 -23.876,-82.574 -51.704,-114.81 -13.518,-15.583 -30.997,-27.862 -50.29,-35.364 z" /><path
       id="path3870"
       style="fill:#ffffff;filter:url(#filter4083)"
       inkscape:connector-curvature="0"
       d="m 536.25,-418.06 c -3.5711,18.362 -6.4749,37.392 -3.8122,56.085 1.5809,5.1124 2.501,12.408 8.8811,13.399 12.071,4.0707 24.238,8.7093 34.012,17.226 32.028,25.009 51.644,63.528 57.476,103.37 4.8443,32.718 5.16,65.966 4.891,98.992 -0.56214,20.621 -3.8355,41.585 -8.9647,61.278 2.9059,1.0464 8.435,5.7839 7.6953,-0.18022 6.1796,-36.909 3.9962,-74.428 4.2001,-111.69 -0.82272,-43.841 -7.1445,-87.814 -20.256,-129.54 -11.682,-35.499 -29.15,-71.214 -59.201,-94.64 -7.658,-5.9393 -16.101,-10.709 -24.786,-14.969 l -0.13486,0.67427 z" /></g><g
     id="g4069"
     transform="matrix(0.22637141,0,0,0.22637141,98.780945,240.32945)"><path
       id="path4045"
       d="m -87.428,-727.29 -6.8562,18.345 c 8.9364,6.4724 18.979,10.095 30.815,15.417 -9.9076,2.8871 -21.365,1.2209 -34.913,0.038 l -1.7286,19.501 27.364,6.8324 c -11.815,5.9533 -16.31,9.2184 -25.602,12.835 l 8.5956,20.071 c 62.846,-31.072 74.54,-13.446 142.84,-13.446 7.8435,0.13872 17.393,-13.153 17.463,-25.366 0.0851,-14.861 -6.1913,-30.092 -17.463,-28.706 -62.473,-2.2886 -91.807,13.367 -140.52,-25.522 z"
       sodipodi:nodetypes="cccccccccsccc"
       style="fill:#000000"
       inkscape:connector-curvature="0" /><path
       id="path4047"
       d="m 52.578,-697.73 c -6.026,0.62812 -12.003,11.554 -12.003,21.911 0,10.676 5.506,19.707 11.184,22.719 11.644,2.182 17.691,-15.556 16.354,-22.273 0.47094,-15.587 -8.0776,-23.102 -15.535,-22.358 z"
       sodipodi:nodetypes="csccc"
       style="fill:#ff0000"
       inkscape:connector-curvature="0" /><path
       id="path4049"
       d="m -86.444,-720.55 -0.25,0.5625 c -0.47067,2.9146 -4.1682,7.2053 -2.375,9.4375 8.8582,4.8936 18.34,8.9166 27.344,13.25 3.7461,4.152 -1.6555,8.4907 -5.9062,8.0938 -9.2365,1.0571 -18.558,0.3381 -27.812,-0.0937 0.0582,3.7642 -2.2801,9.3494 -0.375,11.969 7.8698,2.5461 17.026,2.8531 24.031,7.3125 3.7683,5.2967 -4.4814,8.092 -7.9688,10.344 -4.1571,2.8792 -11.347,4.5034 -13.531,8.0312 2.6389,2.8929 2.4659,13.545 7.4375,9.9062 18.301,-8.3893 37.822,-15.342 58.25,-14.938 25.113,-0.69063 53.457,6.1054 78.526,5.5867 -8.0664,-3.5529 -13.474,-14.747 -13.474,-25.684 0,-10.284 6.1279,-19.21 11.587,-22.401 -26.495,0.31121 -55.685,2.8595 -82.107,0.99819 -19.632,-1.8207 -37.288,-11.603 -53.375,-22.375 z"
       sodipodi:nodetypes="cccccccccccccscccc"
       style="fill:#ff0000"
       inkscape:connector-curvature="0" /><path
       id="path4051"
       d="m -86,-718.09 c 27.14,22.318 73.527,24.172 129.44,20.524 l -3.2652,5.3643 c -9.7238,0.52953 -18.041,0.77272 -26.821,0.6322 -75.764,-1.2126 -82.868,-12.295 -101.69,-20.69 z"
       sodipodi:nodetypes="cccscc"
       style="fill:#ffffff;fill-opacity:0.49407002;filter:url(#filter3976)"
       inkscape:connector-curvature="0" /><path
       id="path4053"
       style="fill:#ffffff;fill-opacity:0.49407002;filter:url(#filter3982)"
       d="m -95.392,-493.26 c 23.642,2.0269 71.195,7.1464 127.81,-2.0991 -26.106,10.686 -120.31,9.3278 -127.11,9.7957 z"
       sodipodi:nodetypes="cccc"
       inkscape:connector-curvature="0"
       transform="matrix(1,0,0,-1,0.52931,-1174.1)" /><path
       id="path4055"
       style="fill:#ffffff;fill-opacity:0.49407002;filter:url(#filter3982)"
       d="m -93.293,-497 c 7.3157,12.522 38.776,31.636 60.64,25.422 -36.368,1.1234 -51.974,-10.03 -63.905,-15.86 z"
       sodipodi:nodetypes="cccc"
       inkscape:connector-curvature="0"
       transform="matrix(1,0,0,-1,5.1939,-1140)" /><path
       id="path4057"
       style="fill:#ffffff;fill-opacity:0.47826006;filter:url(#filter3993)"
       d="m 59.296,-540.11 c -0.47213,-0.0179 -0.94018,-0.0153 -1.4062,0.0312 -6.026,0.62812 -12,11.549 -12,21.906 0,10.676 5.4782,19.707 11.156,22.719 11.644,2.182 17.712,-15.533 16.375,-22.25 0.44151,-14.613 -7.0431,-22.137 -14.125,-22.406 z m -0.86814,1.5816 c 6.3761,0 14.097,9.4513 14.097,20.529 0,11.0777 -6.5545,21.462 -12.931,21.462 -6.3761,0 -12.495,-10.384 -12.495,-21.462 0,-11.078 4.9532,-20.529 11.329,-20.529 z"
       sodipodi:nodetypes="scsccssssss"
       transform="matrix(0.95288,0,0,0.95039,-2.3085,-183.56)"
       inkscape:connector-curvature="0" /><ellipse
       id="path4059"
       style="fill:#000000"
       transform="matrix(0.75,0,0,0.7963,286.22,-270.32)"
       cx="-309.26523"
       cy="-508.42429"
       rx="15.393291"
       ry="25.189022" /></g><g
     id="g3997"
     transform="matrix(0.22345348,-0.03623074,0.03623074,0.22345348,116.01913,211.02339)"><path
       id="path3922"
       sodipodi:nodetypes="cccccccccsccc"
       style="fill:#000000"
       inkscape:connector-curvature="0"
       d="m -81.66,-569.63 -6.8562,18.345 c 8.9364,6.4724 18.979,10.095 30.815,15.417 -9.9076,2.8871 -21.365,1.2209 -34.913,0.038 l -1.7286,19.501 27.364,6.8324 c -11.815,5.9533 -16.31,9.2184 -25.602,12.835 l 8.5956,20.071 c 62.846,-31.072 74.54,-13.446 142.84,-13.446 7.8435,0.13872 17.393,-13.153 17.463,-25.366 0.0851,-14.861 -6.1913,-30.092 -17.463,-28.706 -62.473,-2.2886 -91.807,13.367 -140.52,-25.522 z" /><path
       id="path3930"
       sodipodi:nodetypes="csccc"
       style="fill:#0000ff"
       inkscape:connector-curvature="0"
       d="m 58.346,-540.07 c -6.026,0.62812 -12.003,11.554 -12.003,21.911 0,10.676 5.506,19.707 11.184,22.719 11.644,2.182 17.691,-15.556 16.354,-22.273 0.47094,-15.587 -8.0776,-23.102 -15.535,-22.358 z" /><path
       id="path3937"
       sodipodi:nodetypes="cccccccccccccscccc"
       style="fill:#0000ff"
       inkscape:connector-curvature="0"
       d="m -80.676,-562.89 -0.25,0.5625 c -0.47067,2.9146 -4.1682,7.2053 -2.375,9.4375 8.8582,4.8936 18.34,8.9166 27.344,13.25 3.7461,4.152 -1.6555,8.4907 -5.9062,8.0938 -9.2365,1.0571 -18.558,0.3381 -27.812,-0.0937 0.0582,3.7642 -2.2801,9.3494 -0.375,11.969 7.8698,2.5461 17.026,2.8531 24.031,7.3125 3.7683,5.2967 -4.4814,8.092 -7.9688,10.344 -4.1571,2.8792 -11.347,4.5034 -13.531,8.0312 2.6389,2.8929 2.4659,13.545 7.4375,9.9062 18.301,-8.3893 37.822,-15.342 58.25,-14.938 25.113,-0.69063 53.457,6.1054 78.526,5.5867 -8.0664,-3.5529 -13.474,-14.747 -13.474,-25.684 0,-10.284 6.1279,-19.21 11.587,-22.401 -26.495,0.31121 -55.685,2.8595 -82.107,0.99819 -19.632,-1.8207 -37.288,-11.603 -53.375,-22.375 z" /><path
       id="rect3949"
       sodipodi:nodetypes="cccscc"
       style="fill:#aaccff;fill-opacity:0.49407002;filter:url(#filter3976)"
       inkscape:connector-curvature="0"
       d="m -80.232,-560.43 c 27.14,22.318 73.527,24.172 129.44,20.524 l -3.2652,5.3643 c -9.7238,0.52953 -18.041,0.77272 -26.821,0.6322 -75.764,-1.2126 -82.868,-12.295 -101.69,-20.69 z" /><path
       id="path3980"
       style="fill:#aaccff;fill-opacity:0.49407002;filter:url(#filter3982)"
       d="m -95.392,-493.26 c 23.642,2.0269 71.195,7.1464 127.81,-2.0991 -26.106,10.686 -120.31,9.3278 -127.11,9.7957 z"
       sodipodi:nodetypes="cccc"
       inkscape:connector-curvature="0"
       transform="matrix(1,0,0,-1,6.2973,-1016.4)" /><path
       id="path3986"
       style="fill:#aaccff;fill-opacity:0.49407002;filter:url(#filter3982)"
       d="m -93.293,-497 c 7.3157,12.522 38.776,31.636 60.64,25.422 -36.368,1.1234 -51.974,-10.03 -63.905,-15.86 z"
       sodipodi:nodetypes="cccc"
       inkscape:connector-curvature="0"
       transform="matrix(1,0,0,-1,10.962,-982.36)" /><path
       id="path3988"
       style="fill:#ffffff;fill-opacity:0.47826006;filter:url(#filter3993)"
       d="m 59.296,-540.11 c -0.47213,-0.0179 -0.94018,-0.0153 -1.4062,0.0312 -6.026,0.62812 -12,11.549 -12,21.906 0,10.676 5.4782,19.707 11.156,22.719 11.644,2.182 17.712,-15.533 16.375,-22.25 0.44151,-14.613 -7.0431,-22.137 -14.125,-22.406 z m -0.86814,1.5816 c 6.3761,0 14.097,9.4513 14.097,20.529 0,11.0777 -6.5545,21.462 -12.931,21.462 -6.3761,0 -12.495,-10.384 -12.495,-21.462 0,-11.078 4.9532,-20.529 11.329,-20.529 z"
       sodipodi:nodetypes="scsccssssss"
       inkscape:connector-curvature="0"
       transform="matrix(0.95288,0,0,0.95039,3.4594,-25.904)" /><ellipse
       id="path3918"
       style="fill:#000000"
       transform="matrix(0.75,0,0,0.7963,292.47,-112.66)"
       cx="-309.26523"
       cy="-508.42429"
       rx="15.393291"
       ry="25.189022" /></g><g
     id="g3843"
     transform="matrix(0.22637141,0,0,0.22637141,-41.214603,176.9423)"><path
       id="path3820"
       style="fill:#502d16"
       inkscape:connector-curvature="0"
       d="m 511.66,-660.55 c -47.999,0.30464 -85.901,36.194 -113.17,72.111 -46.936,64.862 -70.578,145.41 -70.5,225.29 -1.5224,52.187 0.35277,107.63 26.038,154.39 34.267,58.958 112.16,85.443 176.23,65.126 32.556,-9.8764 59.257,-43.519 53.758,-78.398 -7.1391,-32.455 -16.221,-65.584 -35.111,-93.349 -2.7968,-14.442 -14.604,3.2912 -11.032,-5.2638 1.2444,-27.775 3.0606,-55.63 4.0319,-83.437 0.61612,-13.779 -5.8748,-26.64 -15.456,-36.119 12.491,10.9 31.102,10.714 46.031,5.9358 28.631,-14.603 48.095,-45.554 50.902,-77.166 1.0244,-30.303 1.8833,-62.315 -13.16,-89.653 -17.95,-36.982 -57.234,-61.324 -98.557,-59.47 z" /><path
       id="path3822"
       sodipodi:nodetypes="ccccccccccccc"
       d="m 500.2,-637.64 c -32.221,-2.7254 -74.092,30.402 -94.897,59.145 -36.018,52.051 -57.507,118.84 -63.036,186.55 -4.668,44.132 -7.2843,91.236 6.6789,132.46 18.867,52.095 57.868,70.512 101,90.221 83.35,-26.62 56.731,-78.813 12.398,-106.18 -2.5212,-27.949 54.522,-37.582 43.79,-62.286 -41.495,-31.011 6.3779,-59.391 -25.348,-107.18 7.6173,10.014 30.252,3.4109 40.601,0.28909 20.227,-10.596 60.789,-21.678 64.881,-48.293 2.8047,-25.617 8.1519,-76.768 -0.029,-100.87 -9.4575,-32.457 -58.184,-42.856 -86.034,-43.854 z"
       style="fill:#db8a37;fill-opacity:0.64032;filter:url(#filter3832)"
       inkscape:connector-curvature="0" /><path
       id="path3836"
       style="fill:#f4e3d7;fill-opacity:0.27273003;filter:url(#filter3832)"
       d="m 325.28,-846.28 c -32.221,-2.7254 -92.923,58.336 -113.73,87.079 -36.018,52.051 -57.507,118.84 -63.036,186.55 -4.668,44.132 -7.2843,91.236 6.6789,132.46 18.867,52.095 69.272,79.382 113.67,66.146 22.53,-6.3462 42.792,-33.197 41.541,-63.098 -2.5212,-27.949 -6.2986,-56.588 -17.031,-81.293 -0.86701,-12.413 -10.027,1.8814 -7.0326,-5.1466 2.7756,-23.461 5.9404,-46.954 8.535,-70.46 1.3761,-11.639 -2.0795,-22.941 -7.8442,-31.57 7.6173,10.014 20.116,11.013 30.464,7.8917 20.227,-10.596 5.7646,-80.851 9.8565,-107.47 2.8047,-25.617 143.61,53.818 98.419,-54.159 -22.273,-111.39 -72.639,-65.932 -100.49,-66.93 z"
       sodipodi:nodetypes="cccccccccccccc"
       inkscape:connector-curvature="0"
       transform="matrix(0.63988,0.043944,-0.055731,0.81151,227.68,52.573)" /><path
       id="path3810"
       d="m 517.64,-666.47 c -93.016,-0.57733 -180.46,130.64 -191.75,269.41 -2.0707,29.617 -12.649,139.39 31.344,202.03 46.64,66.405 149.74,83.634 212.28,33.906 41.389,-47.748 -5.6124,-134.65 -27.031,-167.69 -10.446,-29.861 8.5381,-79.382 -4.3411,-101.4 18.447,3.218 42.169,-1.076 59.949,-19.843 13.067,-13.792 26.726,-33.346 28.673,-59.415 3.0497,-40.825 -3.1176,-68.07 -13.233,-90.889 -19.816,-44.704 -57.009,-62.696 -86.861,-65.642 -3.0097,-0.29708 -6.0307,-0.45013 -9.0312,-0.46875 z m -3.1875,6.5938 c 2.8638,0.0182 5.7539,0.17809 8.625,0.46875 43.013,4.3544 108.73,36.313 98.812,148.16 -5.7064,64.338 -88.535,135.91 -134.26,9.3249 3.9888,22.082 10.69,35.577 42.012,67.037 6.0634,6.0899 10.786,16.472 10.858,32.018 0.0845,18.263 -4.9877,43.653 -3.1782,77.582 0.4993,9.3617 -5.4849,19.102 -15.946,27.736 -9.9968,8.2506 -31.454,10.35 -37.422,16.709 22.549,-11.44 38.07,-1.003 57.479,-40.559 17.955,16.874 30.559,52.293 40.764,97.224 4.8729,21.454 -6.5891,46.301 -16.322,56.784 -46.371,49.942 -159.93,33.739 -204.42,-31.23 -41.966,-61.282 -32.725,-168.68 -30.75,-197.66 10.769,-135.77 94.971,-264.16 183.75,-263.59 z"
       sodipodi:nodetypes="scscccsssssssscscsssccsscss"
       style="fill:#002200"
       inkscape:connector-curvature="0" /></g></g><g
   id="g2957"
   transform="matrix(0.53083698,0,0,0.53083698,71.187602,623.57374)"><path
     id="path2879"
     style="fill:#ffffff;fill-opacity:0.49407002;stroke-width:4.41751909;stroke-miterlimit:4;stroke-dasharray:none;filter:url(#filter3982)"
     d="m -93.293,-497 c 7.3157,12.522 38.776,31.636 60.64,25.422 -36.368,1.1234 -51.974,-10.03 -63.905,-15.86 z"
     sodipodi:nodetypes="cccc"
     inkscape:connector-curvature="0"
     transform="matrix(0.22637141,0,0,-0.22637141,215.70801,-15.616557)" /><path
     id="path2861"
     d="m 192.3463,81.633791 c 34.93816,11.108724 27.78935,82.596139 25.78823,86.353899 l -6.25193,-2.73524 c 0,0 5.1864,-7.59476 1.96552,-35.95005 -1.6914,-14.89093 -11.89129,-25.26531 -19.30767,-26.55789 -7.41661,-1.2946 -2.19504,-21.109361 -2.19504,-21.109361 z"
     sodipodi:nodetypes="cccszcc"
     style="fill:#ffffff;stroke:#040101;stroke-width:1;stroke-miterlimit:4;stroke-dasharray:none;stroke-opacity:0.95977017"
     inkscape:connector-curvature="0" /><path
     id="path2869"
     d="m 199.71676,93.412188 -1.55205,4.152784 c 2.02295,1.465166 4.29631,2.285219 6.97564,3.489968 -2.2428,0.65356 -4.83643,0.27638 -7.90331,0.009 l -0.3913,4.41447 6.19442,1.54666 c -2.67457,1.34766 -3.69211,2.08678 -5.79556,2.90548 l 1.9458,4.5435 c 14.22654,-7.03381 16.87373,-3.04379 32.33489,-3.04379 1.77555,0.0314 3.93728,-2.97747 3.95313,-5.74214 0.0193,-3.36411 -1.40154,-6.811969 -3.95313,-6.498218 -14.1421,-0.518074 -20.78248,3.025908 -31.80971,-5.777452 z"
     sodipodi:nodetypes="cccccccccsccc"
     style="fill:#ffffff;stroke:#000000;stroke-width:1;stroke-linejoin:round;stroke-miterlimit:4;stroke-dasharray:none"
     inkscape:connector-curvature="0" /><path
     id="path2887"
     sodipodi:nodetypes="cccccccccsccc"
     style="fill:#ffffff;stroke:#000000;stroke-width:1;stroke-linejoin:round;stroke-miterlimit:4;stroke-dasharray:none;stroke-opacity:0.95977017"
     inkscape:connector-curvature="0"
     d="m 194.38573,80.18932 -0.86739,4.34766 c 2.23137,1.122508 4.60668,1.568139 7.44429,2.328532 -2.10928,1.004092 -4.72985,1.046884 -7.80005,1.273415 l 0.32027,4.420197 6.36213,0.5353 c -2.42442,1.75835 -3.31054,2.65081 -5.25584,3.79561 l 2.6479,4.173506 c 12.9174,-9.220106 16.16907,-5.705196 31.43094,-8.179756 1.75768,-0.25317 3.40998,-3.569241 2.98314,-6.300815 -0.51941,-3.323825 -2.47372,-6.499847 -4.94221,-5.781758 -14.04272,1.752047 -20.03029,6.313138 -32.32436,-0.611836 z" /><path
     sodipodi:nodetypes="cccccccccccc"
     inkscape:connector-curvature="0"
     id="path2939"
     d="m 191.71561,28.189946 c -21.05616,-0.130691 -40.85098,29.573161 -43.40672,60.986722 -0.46874,6.704442 -2.86337,31.553912 7.09539,45.733812 10.55796,15.0322 33.89686,18.93235 48.05412,7.67535 9.36929,-10.80878 -1.27048,-30.48091 -6.11904,-37.96022 -2.36468,-6.759675 1.93278,-17.969814 -0.9827,-22.95406 4.17587,0.728463 9.54585,-0.243575 13.57074,-4.491888 2.95799,-3.122114 6.05,-7.548581 6.49074,-13.449857 0.69037,-9.241613 -0.70573,-15.409102 -2.99557,-20.574671 -4.48577,-10.119708 -12.90521,-14.192582 -19.66285,-14.859472 -0.68131,-0.06725 -1.36517,-0.101897 -2.0444,-0.106112 z"
     style="fill:#ffffff;stroke:#000000;stroke-width:1;stroke-miterlimit:4;stroke-dasharray:none;stroke-opacity:0.95977017" /><path
     sodipodi:nodetypes="cccccccscc"
     inkscape:connector-curvature="0"
     id="path2911"
     d="m 184.92209,65.438785 c 0.90295,4.998733 2.41991,8.053615 9.51032,15.17526 1.37258,1.378579 2.82202,7.112481 2.83832,10.631651 0.0191,4.134221 -0.57884,7.37778 -0.16922,15.058334 -2.38236,4.17791 -2.48416,4.62978 -5.60087,6.58427 -2.26299,1.8677 -6.05975,1.15763 -7.41073,2.59713 5.10445,-2.58969 8.61796,-0.22705 13.0116,-9.1814 0.3403,-11.319175 0.0338,-10.263015 0.16922,-15.058334 0.0997,-3.529472 -0.42217,-9.506991 -4.47306,-12.98882 -4.19084,-4.049351 -7.05076,-9.299149 -7.87558,-12.818091 z"
     style="fill:#ffffff;stroke:#000000;stroke-width:1;stroke-miterlimit:4;stroke-dasharray:none;stroke-opacity:0.95977017" /></g></svg>