<?xml version="1.0" encoding="UTF-8" standalone="no"?>
<!-- Created with Inkscape (http://www.inkscape.org/) -->

<svg
   xmlns:dc="http://purl.org/dc/elements/1.1/"
   xmlns:cc="http://creativecommons.org/ns#"
   xmlns:rdf="http://www.w3.org/1999/02/22-rdf-syntax-ns#"
   xmlns:svg="http://www.w3.org/2000/svg"
   xmlns="http://www.w3.org/2000/svg"
   xmlns:sodipodi="http://sodipodi.sourceforge.net/DTD/sodipodi-0.dtd"
   xmlns:inkscape="http://www.inkscape.org/namespaces/inkscape"
   width="210mm"
   height="297mm"
   viewBox="0 0 210 297"
   version="1.1"
   id="svg8"
   inkscape:version="0.92.5 (0.92.5+68)"
   sodipodi:docname="drawing.svg">
  <defs
     id="defs2">
    <clipPath
       clipPathUnits="userSpaceOnUse"
       id="clipPath1657">
      <rect
         style="opacity:0.5;fill:#7f0000;fill-opacity:1;fill-rule:nonzero;stroke:#666699;stroke-width:0.1;stroke-linejoin:miter;stroke-miterlimit:10;stroke-dasharray:none;stroke-dashoffset:0;stroke-opacity:1"
         id="rect1659"
         width="145.81985"
         height="109.57322"
         x="362.46655"
         y="-202.12061" />
    </clipPath>
  </defs>
  <sodipodi:namedview
     id="base"
     pagecolor="#ffffff"
     bordercolor="#666666"
     borderopacity="1.0"
     inkscape:pageopacity="0.0"
     inkscape:pageshadow="2"
     inkscape:zoom="0.15876465"
     inkscape:cx="837.45102"
     inkscape:cy="496.45554"
     inkscape:document-units="mm"
     inkscape:current-layer="layer1"
     showgrid="false"
     inkscape:window-width="1855"
     inkscape:window-height="1056"
     inkscape:window-x="65"
     inkscape:window-y="24"
     inkscape:window-maximized="1" />
  <metadata
     id="metadata5">
    <rdf:RDF>
      <cc:Work
         rdf:about="">
        <dc:format>image/svg+xml</dc:format>
        <dc:type
           rdf:resource="http://purl.org/dc/dcmitype/StillImage" />
        <dc:title></dc:title>
      </cc:Work>
    </rdf:RDF>
  </metadata>
  <g
     inkscape:label="Layer 1"
     inkscape:groupmode="layer"
     id="layer1">
    <path
       style="fill:#ac9393;stroke-width:0.26458335"
       d="m 309.42586,-9.4021894 c -2.4751,-3.5626596 -16.43388,0.49453 -11.84651,-6.1041396 2.46118,-3.49756 9.42071,-12.31471 8.88053,-20.18736 3.58268,-10.96658 4.89774,-22.88073 1.34218,-33.99896 -0.68138,-7.01097 -4.01434,-12.7878 -5.75243,-18.85449 -1.66392,-2.62954 -3.22835,-11.761621 -6.14169,-16.748491 -11.04656,-13.43423 -26.7428,-0.65459 -42.41945,4.92648 -6.52131,3.928421 -14.01067,7.771191 -22.04834,5.218141 -14.01477,-0.24234 -27.79585,-2.54668 -41.65024,-4.20309 -9.67907,-0.25051 -14.56551,2.45386 -16.27606,11.71627 -1.61688,16.76755 -7.14772,17.19453 -7.51212,30.50829 -0.83986,15.3842 -1.20199,13.30062 -0.38828,24.62776 7.28886,-1.00983 2.7907,19.23458 -3.07549,20.07086 -4.58455,1.19026 -22.8946,2.38236 -17.92466,-5.44382 8.86514,-7.34322 7.07719,-20.27433 7.78618,-30.80678 -1.7974,-9.64611 -7.17522,-18.56947 -6.0112,-29.10229 0.5003,-10.91932 -18.03626,-7.28254 -17.17581,-20.59125 0.5077,-8.986391 -6.51797,-11.745191 -7.64514,-19.480001 -2.37426,-7.5523 -2.13146,-16.8616 -7.92326,-23.19517 -5.55394,1.38035 -12.95834,0.4472 -14.054806,-1.46917 -7.59142,-1.85658 3.484046,-15.49073 -2.19334,-21.56356 -0.5683,-5.32064 -2.40095,-14.73446 -4.48048,-16.76944 -3.77518,-1.06734 -11.94694,1.91265 -14.68635,-2.40536 -8.08852,-3.64087 -9.83466,-14.81863 0.0361,-15.81717 5.47276,-1.919 12.36329,6.27089 15.29941,3.69048 -0.0355,-2.21238 3.37984,-1.26656 1.60465,-3.76985 -0.75515,-2.23131 -8.42256,-5.31538 -8.76503,-7.80149 -0.89865,-6.84937 12.2759,2.526 16.813926,-0.82896 3.986,-2.31332 9.05991,-3.86446 12.17941,-2.79842 7.22451,3.63372 13.79051,5.837 21.44671,1.59745 0.48679,5.78022 -12.8125,13.26429 -2.78148,11.3699 4.45434,-3.4276 13.00753,-2.58163 19.56758,-2.10097 0.68496,0.71566 7.17776,1.63495 6.52639,0.91353 27.989,5.85985 48.24182,3.71233 76.93593,2.50528 24.84341,1.2247 85.63286,-15.86734 99.69184,10.70711 3.01512,1.99543 3.82335,16.69523 2.2079,18.76282 -1.10839,7.27623 -1.98627,12.04523 -2.3862,19.45836 -0.8261,-0.32499 0.27397,4.79251 -0.97501,6.64937 -0.69136,6.45132 -0.39451,11.8432 -1.01879,17.55795 0.60023,7.38597 0.79091,6.55617 1.2352,11.70296 1.78972,0.78853 6.91124,14.370181 1.87523,21.135541 -5.60387,3.72095 -2.10178,20.7011 -7.30796,16.00125 -1.54363,2.68363 0.3865,9.38424 -1.1831,13.80053 3.79127,4.59561 -1.38233,14.41363 -0.61698,22.29447 -0.808,6.48263 1.07372,14.37487 -3.09649,18.13502 -0.72098,-2.79349 -2.31142,2.08744 -3.30513,4.63977 1.12434,8.3289896 -7.82976,5.4615596 -12.78734,6.0506396 z"
       id="path2261"
       inkscape:connector-curvature="0"
       sodipodi:nodetypes="ccccccccccccccccccccccccccccccccccccccccccccccc" />
    <path
       style="fill:#00ff00;stroke-width:0.26458335"
       d="m 424.85993,37.704284 c -0.20932,-0.27197 -0.15411,-0.75263 0.19295,-1.67964 0.26742,-0.71427 0.42408,-1.42926 0.34814,-1.5889 -0.0759,-0.15962 -1.01502,-0.28454 -2.08686,-0.27755 -1.07184,0.007 -3.17649,-0.0756 -4.01087,-0.18337 l -1.51706,-0.19603 -0.25423,1.71069 c -0.20279,1.36456 -0.36449,1.71068 -0.79924,1.71068 -0.70707,0 -0.8768,-1.58438 -0.29359,-2.74078 0.41591,-0.82469 0.38007,-1.81096 -2.03442,-3.39464 -6.33945,-4.15809 -13.08192,-7.66511 -19.36549,-9.34163 -1.29905,-0.34661 -2.79892,-0.91728 -3.33306,-1.26816 -3.94204,-2.58961 -5.94829,-3.55532 -8.98811,-4.32643 -1.37607,-0.34907 -2.76673,-0.63467 -3.09035,-0.63467 -0.61274,0 -0.84757,-0.15259 -4.3131,-2.80271 -2.20412,-1.6855 -6.55309,-4.0629396 -8.87751,-4.8530296 l -1.35973,-0.46219 1.31944,-0.423 c 0.7257,-0.23265 2.1735,-0.67062 3.21734,-0.97327 1.04384,-0.30265 1.93681,-0.63906 1.98438,-0.74758 0.0476,-0.10852 0.93446,-0.58478 1.97089,-1.05836 3.74586,-1.711601 7.11151,-1.725081 14.12288,-0.0566 1.81901,0.43288 3.39006,0.78847 3.49123,0.79021 0.10117,0.002 0.22341,-0.56238 0.27164,-1.25361 l 0.0877,-1.256771 0.33856,1.190631 c 0.50014,1.75879 0.95799,2.18946 4.01294,3.77459 1.52797,0.79282 4.14734,2.165 5.82083,3.0492896 1.67349,0.88429 4.41193,2.16544 6.08542,2.84701 1.67349,0.68157 4.54278,1.46334 5.08268,1.73729 0.53991,0.27393 1.1811,0.49807 1.42487,0.49807 0.48609,0 1.72914,-1.20011 1.49037,-1.43888 -0.0817,-0.0817 -0.0113,-0.14862 0.15651,-0.14862 0.5462,0 1.04469,-1.68157 0.91099,-3.07303 -0.23198,-2.4141896 1.51609,-7.3867796 2.52823,-7.1918596 0.69658,0.13415 1.86919,2.10382 2.05808,3.45702 0.16218,1.16188 0.26253,1.3006 1.26585,1.74981 1.04909,0.46971 1.10943,0.47017 1.61887,0.0124 0.58268,-0.52361 3.25517,-1.82679 3.7547,-1.83089 0.88478,-0.007 0.46501,1.32334 -1.4573,4.6194196 -1.16838,2.00335 -1.14909,2.21263 0.27167,2.94733 0.41554,0.21489 0.68508,0.50469 0.59897,0.64402 -0.23529,0.38071 -0.0527,0.3298 2.31897,-0.64663 1.20225,-0.49497 3.20144,-1.25625 4.44263,-1.69174 1.2412,-0.43549 2.80225,-1.50077 4.76251,-2.36728 1.96026,-0.8665096 4.15942,-1.7792696 4.88703,-2.0283396 3.53024,-1.20849 5.42395,-2.70315 5.42395,-4.281 0,-0.3337 0.11907,-0.6803 0.26459,-0.77024 0.16161,-0.0999 0.26458,0.30593 0.26458,1.04272 0,0.66344 0.11819,1.20624 0.26264,1.20624 0.14445,0 2.07922,-0.3661 4.29948,-0.81356 4.70423,-0.94807 8.77858,-1.23069 11.53601,-0.80021 1.79437,0.28013 6.08568,1.71811 6.39145,2.14173 0.0728,0.1008 1.7694,0.58114 3.77032,1.06743 2.00091,0.48629 3.63801,0.96786 3.63801,1.07015 0,0.1023 -0.44649,0.26804 -0.99218,0.36832 -2.39327,0.43979 -8.74982,3.5989496 -11.34264,5.6372196 -1.82695,1.43619 -1.628,1.3606 -5.37113,2.04071 -3.69932,0.67215 -6.33909,1.66696 -9.9005,3.73105 -1.47761,0.85637 -2.64753,1.31183 -4.06765,1.58354 -1.09641,0.20978 -3.80695,0.84419 -6.02343,1.40979 -5.82883,1.48742 -7.76326,2.88204 -14.16136,8.04059 -2.23901,2.45631 -1.49623,2.86484 -1.33513,3.98057 0.27389,1.89676 -0.88584,3.61782 -1.71337,2.5427 z"
       id="path1547"
       inkscape:connector-curvature="0"
       sodipodi:nodetypes="cccccccscscccsccccscccccccssscsssccccccccsccscscssssccsccsccccccc" />
    <path
       style="fill:#552200;stroke-width:0.26458332"
       d="m 383.17855,-105.03426 c -5.37399,1.48954 -8.1441,8.271414 -13.31066,10.958984 -3.89022,2.02364 -7.4177,5.25126 -7.27472,9.92768 1.34982,2.36361 5.93499,5.03517 7.38952,4.47109 4.60866,0.33038 11.37806,-0.72304 14.6005,3.88658 4.24919,3.90514 1.10905,9.78853 -2.20015,12.87344 -0.8201,2.75426 3.50695,4.44007 2.2559,0.9472 1.17274,-2.61724 2.40467,-2.32662 3.54963,-3.54558 1.07844,-1.14813 0.10051,-3.07693 3.12394,-3.54572 3.02342,-0.46879 4.67455,9.57471 3.5167,14.35535 -0.23628,2.97297 -6.78543,4.39197 -5.90304,4.47916 0.90813,1.07448 -4.01146,2.25452 0.24072,1.6214 1.31961,0.53653 -0.56311,1.65215 1.76247,0.54284 2.1475,-0.63666 0.31959,2.8535 2.59635,0.38726 3.21736,-4.45433 5.58564,-9.61004 11.25461,-11.48544 4.71636,-3.8922 7.45279,3.58234 7.48756,7.28691 -0.90166,4.11874 -10.3694,0.43167 -7.55745,6.51024 3.76415,2.02594 8.2712,-2.37922 12.38831,-0.56999 -1.8659,0.79975 -6.98396,-0.80025 -7.82121,2.25074 5.67487,-2.65088 12.67039,1.63706 17.8002,-2.22656 5.70598,-3.60538 12.49173,-1.23967 18.64973,-0.657 5.92001,0.74219 12.28507,6.27274 10.43289,12.73611 -2.31771,5.90016 -8.80936,8.93474 -14.61048,10.42461 -11.6347,2.44642 -23.85304,-0.091 -34.36031,-5.38907 -1.25897,-0.58988 -7.91026,-4.31162 -5.36558,-1.58955 1.86507,1.97178 5.05307,3.99737 8.06661,5.49019 10.94556,5.75726 24.08067,7.49899 36.03948,4.21181 6.1307,-2.03707 12.52767,-6.05792 14.71788,-12.41863 1.45324,-6.5248 -2.97658,-12.70755 -8.28678,-16.02919 -3.81682,-2.64748 -5.27942,-7.09075 -6.17141,-11.41483 -2.09072,-6.27608 -3.87806,-12.74856 -6.9993,-18.60236 -5.61124,-9.74716 -17.0178,-14.36873 -27.84316,-14.80747 -4.57716,-1.1911 -12.67183,1.56153 -14.8331,-2.71314 1.62762,-6.111274 -5.98266,-8.731654 -9.55513,-4.269734 -5.2612,1.599024 -1.25208,-3.85145 -3.78052,-4.09733 z"
       id="path863"
       inkscape:connector-curvature="0"
       sodipodi:nodetypes="cscccccazcccccccccccccccccccccccccc" />
  </g>
</svg>
