<?xml version="1.0" encoding="UTF-8" standalone="no"?>
<!-- Created with Inkscape (http://www.inkscape.org/) -->

<svg
   xmlns:dc="http://purl.org/dc/elements/1.1/"
   xmlns:cc="http://creativecommons.org/ns#"
   xmlns:rdf="http://www.w3.org/1999/02/22-rdf-syntax-ns#"
   xmlns:svg="http://www.w3.org/2000/svg"
   xmlns="http://www.w3.org/2000/svg"
   xmlns:xlink="http://www.w3.org/1999/xlink"
   xmlns:sodipodi="http://sodipodi.sourceforge.net/DTD/sodipodi-0.dtd"
   xmlns:inkscape="http://www.inkscape.org/namespaces/inkscape"
   width="210mm"
   height="297mm"
   viewBox="0 0 210 297"
   version="1.1"
   id="svg8"
   inkscape:version="0.92.5 (2060ec1f9f, 2020-04-08)"
   sodipodi:docname="圖畫.svg">
  <defs
     id="defs2">
    <linearGradient
       inkscape:collect="always"
       id="linearGradient7062">
      <stop
         style="stop-color:#9b9b9b;stop-opacity:1"
         offset="0"
         id="stop7058" />
      <stop
         style="stop-color:#501616;stop-opacity:0;"
         offset="1"
         id="stop7060" />
    </linearGradient>
    <clipPath
       id="clipEmfPath1"
       clipPathUnits="userSpaceOnUse">
      <path
         id="path372"
         d="M -34.117795,-13.300157 L 382.81323,-13.300157 L 382.81323,315.15591 L -34.117795,315.15591 z" />
    </clipPath>
    <clipPath
       id="clipEmfPath2"
       clipPathUnits="userSpaceOnUse">
      <path
         id="path375"
         d="M -33.539528,-12.72189 L 382.81323,-12.72189 L 382.81323,315.15591 L -33.539528,315.15591 z" />
    </clipPath>
    <clipPath
       id="clipEmfPath3"
       clipPathUnits="userSpaceOnUse">
      <path
         id="path378"
         d="M -33.539062,-12.722656 V 315.15625 H 382.8125 V -12.722656 Z" />
    </clipPath>
    <clipPath
       id="clipEmfPath4"
       clipPathUnits="userSpaceOnUse">
      <path
         id="path381"
         d="M 0,55.513672 V 189.09375 H 126.0625 V 55.513672 Z" />
    </clipPath>
    <clipPath
       id="clipEmfPath5"
       clipPathUnits="userSpaceOnUse">
      <path
         id="path384"
         d="M 134.73633,197.18945 V 298.96484 H 295.49414 V 197.18945 Z" />
    </clipPath>
    <pattern
       y="0"
       x="0"
       height="6"
       width="6"
       patternUnits="userSpaceOnUse"
       id="EMFhbasepattern" />
    <clipPath
       id="clipEmfPath1-1"
       clipPathUnits="userSpaceOnUse">
      <path
         id="path734"
         d="M -34.117795,-13.300157 L 382.81323,-13.300157 L 382.81323,315.15591 L -34.117795,315.15591 z" />
    </clipPath>
    <clipPath
       id="clipEmfPath2-4"
       clipPathUnits="userSpaceOnUse">
      <path
         id="path737"
         d="M -33.539528,-12.72189 L 382.81323,-12.72189 L 382.81323,315.15591 L -33.539528,315.15591 z" />
    </clipPath>
    <clipPath
       id="clipEmfPath3-1"
       clipPathUnits="userSpaceOnUse">
      <path
         id="path740"
         d="M -33.539062,-12.722656 V 315.15625 H 382.8125 V -12.722656 Z" />
    </clipPath>
    <clipPath
       id="clipEmfPath4-7"
       clipPathUnits="userSpaceOnUse">
      <path
         id="path743"
         d="M 0,55.513672 V 189.09375 H 126.0625 V 55.513672 Z" />
    </clipPath>
    <clipPath
       id="clipEmfPath5-1"
       clipPathUnits="userSpaceOnUse">
      <path
         id="path746"
         d="M 134.73633,197.18945 V 298.96484 H 295.49414 V 197.18945 Z" />
    </clipPath>
    <pattern
       y="0"
       x="0"
       height="6"
       width="6"
       patternUnits="userSpaceOnUse"
       id="EMFhbasepattern-8" />
    <clipPath
       id="clipEmfPath1-0"
       clipPathUnits="userSpaceOnUse">
      <path
         id="path1096"
         d="M -34.117795,-13.300157 L 382.81323,-13.300157 L 382.81323,346.38236 L -34.117795,346.38236 z" />
    </clipPath>
    <clipPath
       id="clipEmfPath2-0"
       clipPathUnits="userSpaceOnUse">
      <path
         id="path1099"
         d="M -33.539528,-12.72189 L 382.81323,-12.72189 L 382.81323,346.38236 L -33.539528,346.38236 z" />
    </clipPath>
    <clipPath
       id="clipEmfPath3-4"
       clipPathUnits="userSpaceOnUse">
      <path
         id="path1102"
         d="M -33.539062,-12.722656 V 346.38281 H 382.8125 V -12.722656 Z" />
    </clipPath>
    <clipPath
       id="clipEmfPath4-3"
       clipPathUnits="userSpaceOnUse">
      <path
         id="path1105"
         d="M 0,55.513672 V 189.09375 H 126.0625 V 55.513672 Z" />
    </clipPath>
    <clipPath
       id="clipEmfPath5-0"
       clipPathUnits="userSpaceOnUse">
      <path
         id="path1108"
         d="M 134.73633,197.18945 V 298.96484 H 295.49414 V 197.18945 Z" />
    </clipPath>
    <pattern
       y="0"
       x="0"
       height="6"
       width="6"
       patternUnits="userSpaceOnUse"
       id="EMFhbasepattern-81" />
    <clipPath
       id="clipEmfPath1-9"
       clipPathUnits="userSpaceOnUse">
      <path
         id="path1458"
         d="M 2.3130709,2.3130709 L 233.62016,2.3130709 L 233.62016,298.96441 L 2.3130709,298.96441 z" />
    </clipPath>
    <clipPath
       id="clipEmfPath2-9"
       clipPathUnits="userSpaceOnUse">
      <path
         id="path1461"
         d="M 32.382812,197.18945 V 298.96484 H 193.14062 V 197.18945 Z" />
    </clipPath>
    <pattern
       y="0"
       x="0"
       height="6"
       width="6"
       patternUnits="userSpaceOnUse"
       id="EMFhbasepattern-2" />
    <clipPath
       id="clipEmfPath1-18"
       clipPathUnits="userSpaceOnUse">
      <path
         id="path1762"
         d="M 0,0 L 161.33669,0 L 161.33669,102.35339 L 0,102.35339 z" />
    </clipPath>
    <clipPath
       id="clipEmfPath2-7"
       clipPathUnits="userSpaceOnUse">
      <path
         id="path1765"
         d="M 0,0.578125 V 102.35352 H 160.75781 V 0.578125 Z" />
    </clipPath>
    <pattern
       y="0"
       x="0"
       height="6"
       width="6"
       patternUnits="userSpaceOnUse"
       id="EMFhbasepattern-5" />
    <clipPath
       id="clipEmfPath1-5"
       clipPathUnits="userSpaceOnUse">
      <path
         id="path1788"
         d="M 0,0 L 161.33669,0 L 161.33669,102.35339 L 0,102.35339 z" />
    </clipPath>
    <clipPath
       id="clipEmfPath2-3"
       clipPathUnits="userSpaceOnUse">
      <path
         id="path1791"
         d="M 0,0.578125 V 102.35352 H 160.75781 V 0.578125 Z" />
    </clipPath>
    <pattern
       y="0"
       x="0"
       height="6"
       width="6"
       patternUnits="userSpaceOnUse"
       id="EMFhbasepattern-9" />
    <clipPath
       id="clipEmfPath1-2"
       clipPathUnits="userSpaceOnUse">
      <path
         id="path1846"
         d="M 2.3130709,2.3130709 L 233.62016,2.3130709 L 233.62016,205.28504 L 2.3130709,205.28504 z" />
    </clipPath>
    <pattern
       y="0"
       x="0"
       height="6"
       width="6"
       patternUnits="userSpaceOnUse"
       id="EMFhbasepattern-4" />
    <clipPath
       id="clipEmfPath1-04"
       clipPathUnits="userSpaceOnUse">
      <path
         id="path2128"
         d="M 0,0 L 231.88535,0 L 231.88535,165.38457 L 0,165.38457 z" />
    </clipPath>
    <pattern
       y="0"
       x="0"
       height="6"
       width="6"
       patternUnits="userSpaceOnUse"
       id="EMFhbasepattern-6" />
    <clipPath
       id="clipEmfPath1-7"
       clipPathUnits="userSpaceOnUse">
      <path
         id="path2149"
         d="M 0,0 L 231.88535,0 L 231.88535,165.38457 L 0,165.38457 z" />
    </clipPath>
    <pattern
       y="0"
       x="0"
       height="6"
       width="6"
       patternUnits="userSpaceOnUse"
       id="EMFhbasepattern-0" />
    <clipPath
       clipPathUnits="userSpaceOnUse"
       id="clipPath6756">
      <rect
         style="fill:#ff0000;stroke:none;stroke-width:0.26499999;stroke-linecap:round;stroke-linejoin:round;stroke-miterlimit:4;stroke-dasharray:none;paint-order:normal"
         id="rect6758"
         width="22.584274"
         height="12.828938"
         x="104.94969"
         y="48.711472"
         transform="rotate(21.287466)" />
    </clipPath>
    <linearGradient
       inkscape:collect="always"
       xlink:href="#linearGradient7062"
       id="linearGradient7064"
       x1="192.29388"
       y1="155.33333"
       x2="148.54613"
       y2="233.98128"
       gradientUnits="userSpaceOnUse" />
  </defs>
  <sodipodi:namedview
     id="base"
     pagecolor="#ffffff"
     bordercolor="#666666"
     borderopacity="1.0"
     inkscape:pageopacity="0.0"
     inkscape:pageshadow="2"
     inkscape:zoom="0.98994949"
     inkscape:cx="583.5549"
     inkscape:cy="625.34892"
     inkscape:document-units="mm"
     inkscape:current-layer="layer1"
     showgrid="true"
     inkscape:snap-bbox="false"
     inkscape:snap-to-guides="false"
     inkscape:snap-others="false"
     inkscape:snap-nodes="true"
     inkscape:bbox-nodes="true"
     inkscape:object-paths="true"
     inkscape:snap-bbox-edge-midpoints="false"
     inkscape:bbox-paths="true"
     inkscape:snap-center="false"
     inkscape:snap-grids="true"
     showborder="true"
     inkscape:snap-object-midpoints="true"
     inkscape:object-nodes="true"
     inkscape:window-width="1920"
     inkscape:window-height="1051"
     inkscape:window-x="-9"
     inkscape:window-y="-9"
     inkscape:window-maximized="1"
     inkscape:snap-global="true"
     inkscape:snap-bbox-midpoints="true">
    <inkscape:grid
       type="xygrid"
       id="grid2210"
       units="mm"
       dotted="false"
       spacingx="5"
       spacingy="5"
       enabled="true"
       empspacing="5" />
    <inkscape:grid
       type="xygrid"
       id="grid6764"
       units="mm"
       spacingx="0.5"
       spacingy="0.5"
       dotted="false"
       enabled="false" />
    <inkscape:grid
       type="axonomgrid"
       id="grid6770"
       units="mm"
       empspacing="5"
       enabled="false" />
    <inkscape:grid
       type="axonomgrid"
       id="grid6778"
       units="mm"
       empspacing="1"
       empcolor="#ff3f3f"
       empopacity="0.25098039"
       enabled="false" />
  </sodipodi:namedview>
  <metadata
     id="metadata5">
    <rdf:RDF>
      <cc:Work
         rdf:about="">
        <dc:format>image/svg+xml</dc:format>
        <dc:type
           rdf:resource="http://purl.org/dc/dcmitype/StillImage" />
        <dc:title></dc:title>
      </cc:Work>
    </rdf:RDF>
  </metadata>
  <g
     inkscape:label="圖層 1"
     inkscape:groupmode="layer"
     id="layer1"
     style="display:inline">
    <path
       style="opacity:1;fill:url(#linearGradient7064);fill-opacity:1;stroke:#000000;stroke-width:0.26458332px;stroke-linecap:butt;stroke-linejoin:miter;stroke-opacity:1"
       d="m 138.56406,177 -34.64101,20 73.61216,42.5 34.64101,-20 z"
       id="path7000"
       inkscape:connector-curvature="0" />
    <ellipse
       style="display:inline;opacity:0.7770004;fill:#ffd5d5;stroke:#000000;stroke-width:0.2677328;stroke-linecap:round;stroke-linejoin:round;stroke-miterlimit:4;stroke-dasharray:none;stroke-dashoffset:0;paint-order:normal"
       id="path6873"
       cx="184.386"
       cy="289.87167"
       rx="5.2003345"
       ry="5.1041918"
       transform="matrix(0.90756125,-0.41991973,0,1,0,0)" />
    <ellipse
       transform="matrix(0.90756125,-0.41991973,0,1,0,0)"
       ry="5.1041918"
       rx="5.2003345"
       cy="298.87869"
       cx="193.92833"
       id="ellipse6875"
       style="display:inline;opacity:0.7770004;fill:#ffd5d5;stroke:#000000;stroke-width:0.2677328;stroke-linecap:round;stroke-linejoin:round;stroke-miterlimit:4;stroke-dasharray:none;stroke-dashoffset:0;paint-order:normal;fill-opacity:0.99607843" />
    <path
       style="display:inline;fill:none;stroke:#000000;stroke-width:0.26458332px;stroke-linecap:butt;stroke-linejoin:miter;stroke-opacity:1"
       d="m 170.70258,207.30589 8.26652,4.79632"
       id="path6877"
       inkscape:connector-curvature="0"
       sodipodi:nodetypes="cc" />
    <path
       style="display:inline;fill:none;stroke:#000000;stroke-width:0.26458332px;stroke-linecap:butt;stroke-linejoin:miter;stroke-opacity:1"
       d="m 163.8901,217.52264 8.64913,4.99222"
       id="path6879"
       inkscape:connector-curvature="0"
       sodipodi:nodetypes="cc" />
    <ellipse
       transform="matrix(0.90756125,-0.41991973,0,1,0,0)"
       ry="5.1041918"
       rx="5.2003345"
       cy="289.87167"
       cx="184.386"
       id="ellipse6881"
       style="display:inline;opacity:0.7770004;fill:#ffd5d5;stroke:#000000;stroke-width:0.2677328;stroke-linecap:round;stroke-linejoin:round;stroke-miterlimit:4;stroke-dasharray:none;stroke-dashoffset:0;paint-order:normal" />
    <path
       sodipodi:nodetypes="cc"
       inkscape:connector-curvature="0"
       id="path6886"
       d="m 163.8901,217.52264 8.64913,4.99222"
       style="display:inline;fill:none;stroke:#000000;stroke-width:0.26458332px;stroke-linecap:butt;stroke-linejoin:miter;stroke-opacity:1" />
    <path
       sodipodi:nodetypes="cc"
       inkscape:connector-curvature="0"
       id="path6888"
       d="m 170.70258,207.30589 8.26652,4.79632"
       style="display:inline;fill:none;stroke:#000000;stroke-width:0.26458332px;stroke-linecap:butt;stroke-linejoin:miter;stroke-opacity:1" />
    <path
       inkscape:connector-curvature="0"
       style="display:inline;opacity:0.884;fill:#ffd5d5;stroke:#000000;stroke-width:0.25505835;stroke-linecap:round;stroke-linejoin:round;stroke-miterlimit:4;stroke-dasharray:none;stroke-dashoffset:0;paint-order:normal"
       d="m 169.17972,206.89285 a 3.9231345,6.1404616 33.739883 0 0 -1.83813,0.44752 3.9231345,6.1404616 33.739883 0 0 -4.71961,7.28793 3.9231345,6.1404616 33.739883 0 0 1.27073,2.89026 l -0.003,0.004 0.0315,0.0181 a 3.9231345,6.1404616 33.739883 0 0 0.23771,0.13746 l 8.37985,4.8364 0.003,-0.005 a 3.9231345,6.1404616 33.739883 0 1 -1.2598,-2.88192 3.9231345,6.1404616 33.739883 0 1 4.7196,-7.28793 3.9231345,6.1404616 33.739883 0 1 2.96468,-0.23358 l 0.003,-0.004 -8.26668,-4.79661 -0.001,0.002 a 3.9231345,6.1404616 33.739883 0 0 -1.52182,-0.41496 z m 10.0583,5.348 a 3.9231345,6.1404616 33.739883 0 1 0.0646,0.0351 3.9231345,6.1404616 33.739883 0 0 -0.0646,-0.0351 z m 0.33383,0.22272 a 3.9231345,6.1404616 33.739883 0 1 0.0501,0.0382 3.9231345,6.1404616 33.739883 0 0 -0.0501,-0.0382 z m 0.27854,0.25632 a 3.9231345,6.1404616 33.739883 0 1 0.062,0.0651 3.9231345,6.1404616 33.739883 0 0 -0.062,-0.0651 z m 0.24288,0.29972 a 3.9231345,6.1404616 33.739883 0 1 0.0661,0.094 3.9231345,6.1404616 33.739883 0 0 -0.0661,-0.094 z m 0.21084,0.3514 a 3.9231345,6.1404616 33.739883 0 1 0.0568,0.11111 3.9231345,6.1404616 33.739883 0 0 -0.0568,-0.11111 z m 0.16691,0.38499 a 3.9231345,6.1404616 33.739883 0 1 0.0501,0.14004 3.9231345,6.1404616 33.739883 0 0 -0.0501,-0.14004 z m 0.12351,0.41496 a 3.9231345,6.1404616 33.739883 0 1 0.0403,0.17519 3.9231345,6.1404616 33.739883 0 0 -0.0403,-0.17519 z m 0.0816,0.45114 a 3.9231345,6.1404616 33.739883 0 1 0.0243,0.20464 3.9231345,6.1404616 33.739883 0 0 -0.0243,-0.20464 z m 0.0455,0.63872 a 3.9231345,6.1404616 33.739883 0 1 -0.0202,0.44597 3.9231345,6.1404616 33.739883 0 0 0.0202,-0.44597 z m -0.0486,0.70797 a 3.9231345,6.1404616 33.739883 0 1 -0.0351,0.27026 3.9231345,6.1404616 33.739883 0 0 0.0351,-0.27026 z m -0.0873,0.54518 a 3.9231345,6.1404616 33.739883 0 1 -0.0579,0.27234 3.9231345,6.1404616 33.739883 0 0 0.0579,-0.27234 z m -0.13333,0.55191 a 3.9231345,6.1404616 33.739883 0 1 -0.0791,0.27078 3.9231345,6.1404616 33.739883 0 0 0.0791,-0.27078 z m -0.1788,0.5581 a 3.9231345,6.1404616 33.739883 0 1 -0.0992,0.26872 3.9231345,6.1404616 33.739883 0 0 0.0992,-0.26872 z m -0.21394,0.53795 a 3.9231345,6.1404616 33.739883 0 1 -0.12971,0.28939 3.9231345,6.1404616 33.739883 0 0 0.12971,-0.28939 z m -0.25631,0.53899 a 3.9231345,6.1404616 33.739883 0 1 -0.15245,0.28732 3.9231345,6.1404616 33.739883 0 0 0.15245,-0.28732 z m -0.29714,0.53227 a 3.9231345,6.1404616 33.739883 0 1 -0.17209,0.28008 3.9231345,6.1404616 33.739883 0 0 0.17209,-0.28008 z m -0.33435,0.51831 a 3.9231345,6.1404616 33.739883 0 1 -0.18759,0.2651 3.9231345,6.1404616 33.739883 0 0 0.18759,-0.2651 z m -0.36277,0.49041 a 3.9231345,6.1404616 33.739883 0 1 -0.20567,0.25425 3.9231345,6.1404616 33.739883 0 0 0.20567,-0.25425 z m -0.38602,0.45682 a 3.9231345,6.1404616 33.739883 0 1 -0.22996,0.24908 3.9231345,6.1404616 33.739883 0 0 0.22996,-0.24908 z m -0.40825,0.42478 a 3.9231345,6.1404616 33.739883 0 1 -0.24804,0.23513 3.9231345,6.1404616 33.739883 0 0 0.24804,-0.23513 z m -0.44596,0.40463 a 3.9231345,6.1404616 33.739883 0 1 -0.2434,0.19999 3.9231345,6.1404616 33.739883 0 0 0.2434,-0.19999 z m -0.45785,0.35863 a 3.9231345,6.1404616 33.739883 0 1 -0.24288,0.17105 3.9231345,6.1404616 33.739883 0 0 0.24288,-0.17105 z m -0.46406,0.30954 a 3.9231345,6.1404616 33.739883 0 1 -0.24701,0.14676 3.9231345,6.1404616 33.739883 0 0 0.24701,-0.14676 z m -0.64492,0.35244 a 3.9231345,6.1404616 33.739883 0 1 -0.28732,0.1173 3.9231345,6.1404616 33.739883 0 0 0.28732,-0.1173 z m -3.13934,0.15244 a 3.9231345,6.1404616 33.739883 0 0 0.0227,0.0124 3.9231345,6.1404616 33.739883 0 1 -0.0227,-0.0124 z m 2.61172,0.0568 a 3.9231345,6.1404616 33.739883 0 1 -0.21446,0.0641 3.9231345,6.1404616 33.739883 0 0 0.21446,-0.0641 z m -2.26343,0.0863 a 3.9231345,6.1404616 33.739883 0 0 0.0501,0.0181 3.9231345,6.1404616 33.739883 0 1 -0.0501,-0.0181 z m 1.78956,0.0481 a 3.9231345,6.1404616 33.739883 0 1 -0.17415,0.0325 3.9231345,6.1404616 33.739883 0 0 0.17415,-0.0325 z m -1.41387,0.0475 a 3.9231345,6.1404616 33.739883 0 0 0.0765,0.015 3.9231345,6.1404616 33.739883 0 1 -0.0765,-0.015 z m 0.95085,0.0305 a 3.9231345,6.1404616 33.739883 0 1 -0.13178,0.009 3.9231345,6.1404616 33.739883 0 0 0.13178,-0.009 z m -0.53744,0.016 a 3.9231345,6.1404616 33.739883 0 0 0.0837,0.005 3.9231345,6.1404616 33.739883 0 1 -0.0837,-0.005 z"
       id="ellipse6890" />
    <path
       style="fill:none;stroke:#000000;stroke-width:0.80796772;stroke-linecap:round;stroke-linejoin:round;stroke-miterlimit:4;stroke-dasharray:none;stroke-opacity:1;paint-order:normal"
       d="m 25.403563,172.41269 -3e-6,59.60761 C 30,237 35,237 39.59619,232.0203 l 3e-6,-59.60761"
       id="path2212"
       inkscape:connector-curvature="0"
       sodipodi:nodetypes="cccc" />
    <circle
       style="fill:#000000;stroke:none;stroke-width:0.26499999;stroke-linecap:round;stroke-linejoin:round;stroke-miterlimit:4;stroke-dasharray:none;paint-order:normal"
       id="path6731"
       cx="131.30588"
       cy="121.05478"
       r="3.96875" />
    <path
       sodipodi:nodetypes="cccc"
       inkscape:connector-curvature="0"
       id="path6735"
       d="m 74.158729,84.736078 14.510253,9.231516 C 91.112538,93.42656 92.046885,91.930435 91.509449,89.5029 L 76.999196,80.271384"
       style="fill:none;stroke:#000000;stroke-width:0.26499999;stroke-linecap:round;stroke-linejoin:round;stroke-miterlimit:4;stroke-dasharray:none;stroke-opacity:1;paint-order:normal"
       inkscape:transform-center-x="6.9182505"
       inkscape:transform-center-y="-7.7411491" />
    <path
       style="fill:#ffe6d5;stroke:#000000;stroke-width:0.26499999;stroke-linecap:round;stroke-linejoin:round;stroke-miterlimit:4;stroke-dasharray:none;stroke-opacity:1;paint-order:normal"
       d="m 78.90338,79.738973 10.16875,13.869566 c 2.473254,0.383007 3.887016,-0.671826 4.267559,-3.128847 L 83.170939,76.610127"
       id="path6737"
       inkscape:connector-curvature="0"
       sodipodi:nodetypes="cccc"
       inkscape:transform-center-x="6.9182502"
       inkscape:transform-center-y="-7.7411488"
       clip-path="url(#clipPath6756)"
       transform="rotate(-21.287466,89.82582,94.860638)"
       mask="none" />
    <path
       style="fill:none;stroke:#000000;stroke-width:1;stroke-linecap:butt;stroke-linejoin:miter;stroke-miterlimit:4;stroke-dasharray:none;stroke-opacity:1"
       d="m 61.623143,172.00979 2.370386,3.50006 C 64.5,176.5 65,177 64.999999,177.94813 v 39.07146 C 65,221 66,222 70.007912,222 H 95.014317 C 99,222 100,221 100,217.01959 V 172 v 0"
       id="path6766"
       inkscape:connector-curvature="0"
       sodipodi:nodetypes="ccccccccc" />
    <path
       style="fill:none;stroke:#000000;stroke-width:0.26458332px;stroke-linecap:round;stroke-linejoin:round;stroke-opacity:1"
       d="m 141.16214,193.5 3.4641,-2 v 4 l -3.4641,2 z"
       id="path6782"
       inkscape:connector-curvature="0" />
    <path
       style="fill:none;stroke:#000000;stroke-width:0.26499999;stroke-linecap:round;stroke-linejoin:round;stroke-miterlimit:4;stroke-dasharray:none;stroke-dashoffset:0;stroke-opacity:1"
       d="m 151.55444,199.5 1e-5,4 3.4641,-2 v -4 z"
       id="path6788"
       inkscape:connector-curvature="0"
       sodipodi:nodetypes="ccccc" />
    <path
       sodipodi:nodetypes="cccccc"
       inkscape:connector-curvature="0"
       id="path6810"
       d="m 160.2147,192.5 10.3923,6 -6.92819,-0.97752 V 206.5 l -3.46411,-2 z"
       style="fill:#ff2a2a;stroke:#000000;stroke-width:0.26458332px;stroke-linecap:round;stroke-linejoin:round;stroke-opacity:1" />
    <path
       style="opacity:0.69100001;fill:#ff2a2a;stroke:#000000;stroke-width:0.99999994px;stroke-linecap:round;stroke-linejoin:round;stroke-opacity:1"
       d="m 605.53516,727.55859 -39.27735,22.67774 v 45.35351 l 39.27735,-22.67578 z m -19.63868,18.89844 v 15.11719 l -13.09179,7.56055 v -15.11915 z"
       transform="scale(0.26458333)"
       id="path6790"
       inkscape:connector-curvature="0" />
    <path
       style="fill:#ff8080;stroke:#000000;stroke-width:0.26458332px;stroke-linecap:butt;stroke-linejoin:miter;stroke-opacity:1"
       d="m 149.82239,210.5 3.46411,2 10.3923,-6 -3.4641,-2 z"
       id="path6812"
       inkscape:connector-curvature="0" />
    <path
       style="fill:#ffaaaa;stroke:#000000;stroke-width:0.26458332px;stroke-linecap:round;stroke-linejoin:round;stroke-opacity:1"
       d="m 134.23394,189.5 2.59807,1.5 v 12 l -2.59807,-1.5 z"
       id="path6804"
       inkscape:connector-curvature="0" />
    <path
       style="fill:#ffd5d5;stroke:#000000;stroke-width:0.26458332px;stroke-linecap:round;stroke-linejoin:round;stroke-opacity:1"
       d="m 134.23394,189.5 10.3923,-6 2.59808,1.5 -10.39231,6 z"
       id="path6806"
       inkscape:connector-curvature="0" />
    <path
       style="fill:#ff5555;stroke:#000000;stroke-width:1.00157475;stroke-linecap:round;stroke-linejoin:round;stroke-miterlimit:4;stroke-dasharray:none;stroke-opacity:1"
       d="M 556.4375 699.21289 L 543.3457 706.77148 C 530.25308 710.55101 523.70703 710.55032 523.70703 718.10938 L 517.16016 721.89062 L 517.16016 767.24414 L 556.4375 744.56641 L 556.4375 699.21289 z "
       transform="scale(0.26458333)"
       id="path7068" />
    <path
       style="fill:#ff8080;stroke:#000000;stroke-width:0.26458332px;stroke-linecap:round;stroke-linejoin:round;stroke-opacity:1"
       d="m 141.16214,193.5 10.3923,6 1e-5,4 -10.39231,-6 z"
       id="path6784"
       inkscape:connector-curvature="0"
       sodipodi:nodetypes="ccccc" />
    <path
       style="fill:#ffd5d5;stroke:#000000;stroke-width:0.26458332px;stroke-linecap:round;stroke-linejoin:round;stroke-opacity:1"
       d="m 144.62624,191.5 -3.4641,2 10.3923,6 3.4641,-2 z"
       id="path6786"
       inkscape:connector-curvature="0" />
    <path
       style="fill:#ffffff;stroke:#000000;stroke-width:0.26458332px;stroke-linecap:butt;stroke-linejoin:miter;stroke-opacity:1"
       d="m 103.92305,197 v 5 l 73.61216,42.5 v -5 z"
       id="path7002"
       inkscape:connector-curvature="0" />
    <path
       style="opacity:0.7770004;fill:#ffaaaa;stroke:#000000;stroke-width:0.26458332px;stroke-linecap:round;stroke-linejoin:round;stroke-opacity:1"
       d="m 149.82239,198.5 10.39231,6 -6.9282,-0.97752 V 212.5 l -3.46411,-2 z"
       id="path6808"
       inkscape:connector-curvature="0"
       sodipodi:nodetypes="cccccc" />
    <path
       style="opacity:0.80899999;fill:#e9afaf;stroke:#000000;stroke-width:0.99999994px;stroke-linecap:round;stroke-linejoin:round;stroke-opacity:1"
       d="m 605.53516,727.55859 -39.27735,22.67774 39.27735,22.67773 39.27929,-22.67773 z m 0,8.60938 a 22.761415,14.067328 0 0 1 22.76172,14.06836 22.761415,14.067328 0 0 1 -22.76172,14.0664 22.761415,14.067328 0 0 1 -22.75977,-14.0664 22.761415,14.067328 0 0 1 22.75977,-14.06836 z"
       transform="scale(0.26458333)"
       id="path6792"
       inkscape:connector-curvature="0" />
    <path
       style="fill:none;stroke:#000000;stroke-width:0.26499999;stroke-linecap:round;stroke-linejoin:round;stroke-miterlimit:4;stroke-dasharray:none;stroke-opacity:1"
       d="m 121.24356,192 -4.33013,10 8.66026,-5 z"
       id="path6990"
       inkscape:connector-curvature="0" />
    <path
       inkscape:connector-curvature="0"
       id="path6996"
       d="m 126.43971,195 -4.33013,10 8.66026,-5 z"
       style="fill:#6e8bb5;stroke:#000000;stroke-width:0.26499999;stroke-linecap:round;stroke-linejoin:round;stroke-miterlimit:4;stroke-dasharray:none;stroke-opacity:1;fill-opacity:0.99607843" />
    <path
       style="opacity:0.81099997;fill:#87aade;stroke:#000000;stroke-width:0.26499999;stroke-linecap:round;stroke-linejoin:round;stroke-miterlimit:4;stroke-dasharray:none;stroke-opacity:1"
       d="m 121.24356,192 5.19615,3 -4.33013,10 -5.19615,-3 z"
       id="path6998"
       inkscape:connector-curvature="0" />
    <path
       style="fill:#ececec;stroke:#000000;stroke-width:0.26458332px;stroke-linecap:butt;stroke-linejoin:miter;stroke-opacity:1"
       d="m 177.53521,239.5 v 5 l 34.64101,-20 v -5 z"
       id="path7004"
       inkscape:connector-curvature="0" />
    <path
       style="fill:#ffaaaa;stroke:#000000;stroke-width:0.265;stroke-linecap:round;stroke-linejoin:round;stroke-opacity:1;stroke-miterlimit:4;stroke-dasharray:none"
       d="m 143.76022,187 c -3.4641,1 -5.19616,1 -5.19616,3 l -2.59807,-1.5 c 0,-2 1.73205,-2 5.19615,-3 z"
       id="path7066"
       inkscape:connector-curvature="0"
       sodipodi:nodetypes="ccccc" />
  </g>
  <g
     inkscape:groupmode="layer"
     id="layer2"
     inkscape:label="圖層 2"
     style="display:inline"
     sodipodi:insensitive="true" />
</svg>
